<mxfile host="Electron" agent="Mozilla/5.0 (Windows NT 10.0; Win64; x64) AppleWebKit/537.36 (KHTML, like Gecko) draw.io/26.2.2 Chrome/134.0.6998.178 Electron/35.1.2 Safari/537.36" version="26.2.2" pages="3">
  <diagram id="fvJ6jG_H9lqAnCddYT11" name="array-list">
    <mxGraphModel dx="1194" dy="575" grid="1" gridSize="10" guides="1" tooltips="1" connect="1" arrows="1" fold="1" page="1" pageScale="1" pageWidth="850" pageHeight="1100" math="0" shadow="0">
      <root>
        <mxCell id="0" />
        <mxCell id="1" parent="0" />
        <mxCell id="M15CUmsdCQal6Ky1O2uu-1" value="Heap" style="rounded=0;whiteSpace=wrap;html=1;dashed=1;verticalAlign=top;fontStyle=1;fillColor=#d5e8d4;strokeColor=#82b366;fontColor=#000000;" vertex="1" parent="1">
          <mxGeometry x="380" y="40" width="370" height="240" as="geometry" />
        </mxCell>
        <mxCell id="M15CUmsdCQal6Ky1O2uu-2" value="Stack" style="rounded=0;whiteSpace=wrap;html=1;dashed=1;verticalAlign=top;fontStyle=1;fillColor=#fff2cc;strokeColor=#d6b656;fontColor=#000000;" vertex="1" parent="1">
          <mxGeometry x="40" y="40" width="280" height="240" as="geometry" />
        </mxCell>
        <mxCell id="M15CUmsdCQal6Ky1O2uu-3" value="" style="rounded=0;whiteSpace=wrap;html=1;" vertex="1" parent="1">
          <mxGeometry x="50" y="70" width="250" height="170" as="geometry" />
        </mxCell>
        <mxCell id="M15CUmsdCQal6Ky1O2uu-4" value="&lt;i&gt;main stack frame&lt;/i&gt;" style="text;html=1;strokeColor=none;fillColor=none;align=left;verticalAlign=middle;whiteSpace=wrap;rounded=0;" vertex="1" parent="1">
          <mxGeometry x="50" y="70" width="190" height="20" as="geometry" />
        </mxCell>
        <mxCell id="M15CUmsdCQal6Ky1O2uu-5" value="10" style="rounded=0;whiteSpace=wrap;html=1;" vertex="1" parent="1">
          <mxGeometry x="480" y="110" width="70" height="30" as="geometry" />
        </mxCell>
        <mxCell id="M15CUmsdCQal6Ky1O2uu-6" value="0x6FF0" style="text;html=1;align=center;verticalAlign=middle;whiteSpace=wrap;rounded=0;fontColor=#000000;" vertex="1" parent="1">
          <mxGeometry x="485" y="90" width="60" height="20" as="geometry" />
        </mxCell>
        <mxCell id="M15CUmsdCQal6Ky1O2uu-7" value="20" style="rounded=0;whiteSpace=wrap;html=1;" vertex="1" parent="1">
          <mxGeometry x="480" y="140" width="70" height="30" as="geometry" />
        </mxCell>
        <mxCell id="M15CUmsdCQal6Ky1O2uu-8" value="intList" style="text;html=1;strokeColor=none;fillColor=none;align=center;verticalAlign=middle;whiteSpace=wrap;rounded=0;" vertex="1" parent="1">
          <mxGeometry x="60" y="100" width="60" height="20" as="geometry" />
        </mxCell>
        <mxCell id="M15CUmsdCQal6Ky1O2uu-9" value="30" style="rounded=0;whiteSpace=wrap;html=1;" vertex="1" parent="1">
          <mxGeometry x="480" y="170" width="70" height="30" as="geometry" />
        </mxCell>
        <mxCell id="M15CUmsdCQal6Ky1O2uu-10" value="" style="group;align=right;" vertex="1" connectable="0" parent="1">
          <mxGeometry x="110" y="110" width="150" height="110" as="geometry" />
        </mxCell>
        <mxCell id="M15CUmsdCQal6Ky1O2uu-11" value="" style="rounded=0;whiteSpace=wrap;html=1;" vertex="1" parent="M15CUmsdCQal6Ky1O2uu-10">
          <mxGeometry width="150" height="110" as="geometry" />
        </mxCell>
        <mxCell id="M15CUmsdCQal6Ky1O2uu-15" value="" style="group" vertex="1" connectable="0" parent="M15CUmsdCQal6Ky1O2uu-10">
          <mxGeometry x="30" y="40" width="110" height="30" as="geometry" />
        </mxCell>
        <mxCell id="M15CUmsdCQal6Ky1O2uu-16" value="5" style="rounded=0;whiteSpace=wrap;html=1;" vertex="1" parent="M15CUmsdCQal6Ky1O2uu-15">
          <mxGeometry x="40" width="70" height="30" as="geometry" />
        </mxCell>
        <mxCell id="M15CUmsdCQal6Ky1O2uu-17" value="m_capacity" style="text;html=1;strokeColor=none;fillColor=none;align=right;verticalAlign=middle;whiteSpace=wrap;rounded=0;" vertex="1" parent="M15CUmsdCQal6Ky1O2uu-15">
          <mxGeometry x="-20" y="5" width="60" height="20" as="geometry" />
        </mxCell>
        <mxCell id="wZZv9N2_R3moH-HPPTqz-1" value="" style="group" vertex="1" connectable="0" parent="M15CUmsdCQal6Ky1O2uu-10">
          <mxGeometry x="30" y="70" width="110" height="30" as="geometry" />
        </mxCell>
        <mxCell id="wZZv9N2_R3moH-HPPTqz-2" value="0x6FF0" style="rounded=0;whiteSpace=wrap;html=1;" vertex="1" parent="wZZv9N2_R3moH-HPPTqz-1">
          <mxGeometry x="40" width="70" height="30" as="geometry" />
        </mxCell>
        <mxCell id="wZZv9N2_R3moH-HPPTqz-3" value="m_arr" style="text;html=1;strokeColor=none;fillColor=none;align=center;verticalAlign=middle;whiteSpace=wrap;rounded=0;" vertex="1" parent="wZZv9N2_R3moH-HPPTqz-1">
          <mxGeometry x="-20" y="5" width="60" height="20" as="geometry" />
        </mxCell>
        <mxCell id="wZZv9N2_R3moH-HPPTqz-4" value="" style="group" vertex="1" connectable="0" parent="M15CUmsdCQal6Ky1O2uu-10">
          <mxGeometry x="30" y="10" width="110" height="30" as="geometry" />
        </mxCell>
        <mxCell id="wZZv9N2_R3moH-HPPTqz-5" value="3" style="rounded=0;whiteSpace=wrap;html=1;" vertex="1" parent="wZZv9N2_R3moH-HPPTqz-4">
          <mxGeometry x="40" width="70" height="30" as="geometry" />
        </mxCell>
        <mxCell id="wZZv9N2_R3moH-HPPTqz-6" value="m_size" style="text;html=1;strokeColor=none;fillColor=none;align=right;verticalAlign=middle;whiteSpace=wrap;rounded=0;" vertex="1" parent="wZZv9N2_R3moH-HPPTqz-4">
          <mxGeometry x="-20" y="5" width="60" height="20" as="geometry" />
        </mxCell>
        <mxCell id="M15CUmsdCQal6Ky1O2uu-18" value="" style="curved=1;endArrow=classic;html=1;rounded=0;exitX=1;exitY=0.5;exitDx=0;exitDy=0;entryX=0;entryY=0;entryDx=0;entryDy=0;" edge="1" parent="1">
          <mxGeometry width="50" height="50" relative="1" as="geometry">
            <mxPoint x="260" y="155" as="sourcePoint" />
            <mxPoint x="480" y="110" as="targetPoint" />
            <Array as="points">
              <mxPoint x="350" y="160" />
              <mxPoint x="420" y="120" />
            </Array>
          </mxGeometry>
        </mxCell>
        <mxCell id="wZZv9N2_R3moH-HPPTqz-7" value="???" style="rounded=0;whiteSpace=wrap;html=1;fillColor=#f5f5f5;fontColor=#333333;strokeColor=#666666;" vertex="1" parent="1">
          <mxGeometry x="480" y="200" width="70" height="30" as="geometry" />
        </mxCell>
        <mxCell id="wZZv9N2_R3moH-HPPTqz-8" value="???" style="rounded=0;whiteSpace=wrap;html=1;fillColor=#f5f5f5;fontColor=#333333;strokeColor=#666666;" vertex="1" parent="1">
          <mxGeometry x="480" y="230" width="70" height="30" as="geometry" />
        </mxCell>
        <mxCell id="wZZv9N2_R3moH-HPPTqz-9" value="0" style="text;html=1;align=right;verticalAlign=middle;whiteSpace=wrap;rounded=0;fontColor=#000000;" vertex="1" parent="1">
          <mxGeometry x="440" y="110" width="40" height="30" as="geometry" />
        </mxCell>
        <mxCell id="wZZv9N2_R3moH-HPPTqz-10" value="1" style="text;html=1;align=right;verticalAlign=middle;whiteSpace=wrap;rounded=0;fontColor=#000000;" vertex="1" parent="1">
          <mxGeometry x="440" y="140" width="40" height="30" as="geometry" />
        </mxCell>
        <mxCell id="wZZv9N2_R3moH-HPPTqz-11" value="2" style="text;html=1;align=right;verticalAlign=middle;whiteSpace=wrap;rounded=0;fontColor=#000000;" vertex="1" parent="1">
          <mxGeometry x="440" y="170" width="40" height="30" as="geometry" />
        </mxCell>
        <mxCell id="wZZv9N2_R3moH-HPPTqz-12" value="3" style="text;html=1;align=right;verticalAlign=middle;whiteSpace=wrap;rounded=0;fontColor=#000000;" vertex="1" parent="1">
          <mxGeometry x="440" y="200" width="40" height="30" as="geometry" />
        </mxCell>
        <mxCell id="wZZv9N2_R3moH-HPPTqz-13" value="4" style="text;html=1;align=right;verticalAlign=middle;whiteSpace=wrap;rounded=0;fontColor=#000000;" vertex="1" parent="1">
          <mxGeometry x="440" y="230" width="40" height="30" as="geometry" />
        </mxCell>
        <mxCell id="wZZv9N2_R3moH-HPPTqz-14" value="Heap" style="rounded=0;whiteSpace=wrap;html=1;dashed=1;verticalAlign=top;fontStyle=1;fillColor=#d5e8d4;strokeColor=#82b366;fontColor=#000000;" vertex="1" parent="1">
          <mxGeometry x="380" y="320" width="370" height="240" as="geometry" />
        </mxCell>
        <mxCell id="wZZv9N2_R3moH-HPPTqz-15" value="Stack" style="rounded=0;whiteSpace=wrap;html=1;dashed=1;verticalAlign=top;fontStyle=1;fillColor=#fff2cc;strokeColor=#d6b656;fontColor=#000000;" vertex="1" parent="1">
          <mxGeometry x="40" y="320" width="280" height="240" as="geometry" />
        </mxCell>
        <mxCell id="wZZv9N2_R3moH-HPPTqz-16" value="" style="rounded=0;whiteSpace=wrap;html=1;" vertex="1" parent="1">
          <mxGeometry x="50" y="350" width="250" height="170" as="geometry" />
        </mxCell>
        <mxCell id="wZZv9N2_R3moH-HPPTqz-17" value="&lt;i&gt;main stack frame&lt;/i&gt;" style="text;html=1;strokeColor=none;fillColor=none;align=left;verticalAlign=middle;whiteSpace=wrap;rounded=0;" vertex="1" parent="1">
          <mxGeometry x="50" y="350" width="190" height="20" as="geometry" />
        </mxCell>
        <mxCell id="wZZv9N2_R3moH-HPPTqz-18" value="???" style="rounded=0;whiteSpace=wrap;html=1;fillColor=#f5f5f5;fontColor=#333333;strokeColor=#666666;" vertex="1" parent="1">
          <mxGeometry x="480" y="390" width="70" height="30" as="geometry" />
        </mxCell>
        <mxCell id="wZZv9N2_R3moH-HPPTqz-19" value="0x6FF0" style="text;html=1;align=center;verticalAlign=middle;whiteSpace=wrap;rounded=0;fontColor=#000000;" vertex="1" parent="1">
          <mxGeometry x="485" y="370" width="60" height="20" as="geometry" />
        </mxCell>
        <mxCell id="wZZv9N2_R3moH-HPPTqz-20" value="???" style="rounded=0;whiteSpace=wrap;html=1;fillColor=#f5f5f5;fontColor=#333333;strokeColor=#666666;" vertex="1" parent="1">
          <mxGeometry x="480" y="420" width="70" height="30" as="geometry" />
        </mxCell>
        <mxCell id="wZZv9N2_R3moH-HPPTqz-21" value="intList" style="text;html=1;strokeColor=none;fillColor=none;align=center;verticalAlign=middle;whiteSpace=wrap;rounded=0;" vertex="1" parent="1">
          <mxGeometry x="60" y="380" width="60" height="20" as="geometry" />
        </mxCell>
        <mxCell id="wZZv9N2_R3moH-HPPTqz-22" value="???" style="rounded=0;whiteSpace=wrap;html=1;fillColor=#f5f5f5;fontColor=#333333;strokeColor=#666666;" vertex="1" parent="1">
          <mxGeometry x="480" y="450" width="70" height="30" as="geometry" />
        </mxCell>
        <mxCell id="wZZv9N2_R3moH-HPPTqz-23" value="" style="group;align=right;" vertex="1" connectable="0" parent="1">
          <mxGeometry x="110" y="390" width="150" height="110" as="geometry" />
        </mxCell>
        <mxCell id="wZZv9N2_R3moH-HPPTqz-24" value="" style="rounded=0;whiteSpace=wrap;html=1;" vertex="1" parent="wZZv9N2_R3moH-HPPTqz-23">
          <mxGeometry width="150" height="110" as="geometry" />
        </mxCell>
        <mxCell id="wZZv9N2_R3moH-HPPTqz-25" value="" style="group" vertex="1" connectable="0" parent="wZZv9N2_R3moH-HPPTqz-23">
          <mxGeometry x="30" y="40" width="110" height="30" as="geometry" />
        </mxCell>
        <mxCell id="wZZv9N2_R3moH-HPPTqz-26" value="5" style="rounded=0;whiteSpace=wrap;html=1;" vertex="1" parent="wZZv9N2_R3moH-HPPTqz-25">
          <mxGeometry x="40" width="70" height="30" as="geometry" />
        </mxCell>
        <mxCell id="wZZv9N2_R3moH-HPPTqz-27" value="m_capacity" style="text;html=1;strokeColor=none;fillColor=none;align=right;verticalAlign=middle;whiteSpace=wrap;rounded=0;" vertex="1" parent="wZZv9N2_R3moH-HPPTqz-25">
          <mxGeometry x="-20" y="5" width="60" height="20" as="geometry" />
        </mxCell>
        <mxCell id="wZZv9N2_R3moH-HPPTqz-28" value="" style="group" vertex="1" connectable="0" parent="wZZv9N2_R3moH-HPPTqz-23">
          <mxGeometry x="30" y="70" width="110" height="30" as="geometry" />
        </mxCell>
        <mxCell id="wZZv9N2_R3moH-HPPTqz-29" value="0x6FF0" style="rounded=0;whiteSpace=wrap;html=1;" vertex="1" parent="wZZv9N2_R3moH-HPPTqz-28">
          <mxGeometry x="40" width="70" height="30" as="geometry" />
        </mxCell>
        <mxCell id="wZZv9N2_R3moH-HPPTqz-30" value="m_arr" style="text;html=1;strokeColor=none;fillColor=none;align=center;verticalAlign=middle;whiteSpace=wrap;rounded=0;" vertex="1" parent="wZZv9N2_R3moH-HPPTqz-28">
          <mxGeometry x="-20" y="5" width="60" height="20" as="geometry" />
        </mxCell>
        <mxCell id="wZZv9N2_R3moH-HPPTqz-31" value="" style="group" vertex="1" connectable="0" parent="wZZv9N2_R3moH-HPPTqz-23">
          <mxGeometry x="30" y="10" width="110" height="30" as="geometry" />
        </mxCell>
        <mxCell id="wZZv9N2_R3moH-HPPTqz-32" value="0" style="rounded=0;whiteSpace=wrap;html=1;" vertex="1" parent="wZZv9N2_R3moH-HPPTqz-31">
          <mxGeometry x="40" width="70" height="30" as="geometry" />
        </mxCell>
        <mxCell id="wZZv9N2_R3moH-HPPTqz-33" value="m_size" style="text;html=1;strokeColor=none;fillColor=none;align=right;verticalAlign=middle;whiteSpace=wrap;rounded=0;" vertex="1" parent="wZZv9N2_R3moH-HPPTqz-31">
          <mxGeometry x="-20" y="5" width="60" height="20" as="geometry" />
        </mxCell>
        <mxCell id="wZZv9N2_R3moH-HPPTqz-34" value="" style="curved=1;endArrow=classic;html=1;rounded=0;exitX=1;exitY=0.5;exitDx=0;exitDy=0;entryX=0;entryY=0;entryDx=0;entryDy=0;" edge="1" parent="1">
          <mxGeometry width="50" height="50" relative="1" as="geometry">
            <mxPoint x="260" y="435" as="sourcePoint" />
            <mxPoint x="480" y="390" as="targetPoint" />
            <Array as="points">
              <mxPoint x="350" y="440" />
              <mxPoint x="420" y="400" />
            </Array>
          </mxGeometry>
        </mxCell>
        <mxCell id="wZZv9N2_R3moH-HPPTqz-35" value="???" style="rounded=0;whiteSpace=wrap;html=1;fillColor=#f5f5f5;fontColor=#333333;strokeColor=#666666;" vertex="1" parent="1">
          <mxGeometry x="480" y="480" width="70" height="30" as="geometry" />
        </mxCell>
        <mxCell id="wZZv9N2_R3moH-HPPTqz-36" value="???" style="rounded=0;whiteSpace=wrap;html=1;fillColor=#f5f5f5;fontColor=#333333;strokeColor=#666666;" vertex="1" parent="1">
          <mxGeometry x="480" y="510" width="70" height="30" as="geometry" />
        </mxCell>
        <mxCell id="wZZv9N2_R3moH-HPPTqz-37" value="0" style="text;html=1;align=right;verticalAlign=middle;whiteSpace=wrap;rounded=0;fontColor=#000000;" vertex="1" parent="1">
          <mxGeometry x="440" y="390" width="40" height="30" as="geometry" />
        </mxCell>
        <mxCell id="wZZv9N2_R3moH-HPPTqz-38" value="1" style="text;html=1;align=right;verticalAlign=middle;whiteSpace=wrap;rounded=0;fontColor=#000000;" vertex="1" parent="1">
          <mxGeometry x="440" y="420" width="40" height="30" as="geometry" />
        </mxCell>
        <mxCell id="wZZv9N2_R3moH-HPPTqz-39" value="2" style="text;html=1;align=right;verticalAlign=middle;whiteSpace=wrap;rounded=0;fontColor=#000000;" vertex="1" parent="1">
          <mxGeometry x="440" y="450" width="40" height="30" as="geometry" />
        </mxCell>
        <mxCell id="wZZv9N2_R3moH-HPPTqz-40" value="3" style="text;html=1;align=right;verticalAlign=middle;whiteSpace=wrap;rounded=0;fontColor=#000000;" vertex="1" parent="1">
          <mxGeometry x="440" y="480" width="40" height="30" as="geometry" />
        </mxCell>
        <mxCell id="wZZv9N2_R3moH-HPPTqz-41" value="4" style="text;html=1;align=right;verticalAlign=middle;whiteSpace=wrap;rounded=0;fontColor=#000000;" vertex="1" parent="1">
          <mxGeometry x="440" y="510" width="40" height="30" as="geometry" />
        </mxCell>
        <mxCell id="wZZv9N2_R3moH-HPPTqz-42" value="Heap" style="rounded=0;whiteSpace=wrap;html=1;dashed=1;verticalAlign=top;fontStyle=1;fillColor=#d5e8d4;strokeColor=#82b366;fontColor=#000000;" vertex="1" parent="1">
          <mxGeometry x="380" y="600" width="370" height="240" as="geometry" />
        </mxCell>
        <mxCell id="wZZv9N2_R3moH-HPPTqz-43" value="Stack" style="rounded=0;whiteSpace=wrap;html=1;dashed=1;verticalAlign=top;fontStyle=1;fillColor=#fff2cc;strokeColor=#d6b656;fontColor=#000000;" vertex="1" parent="1">
          <mxGeometry x="40" y="600" width="280" height="240" as="geometry" />
        </mxCell>
        <mxCell id="wZZv9N2_R3moH-HPPTqz-44" value="" style="rounded=0;whiteSpace=wrap;html=1;" vertex="1" parent="1">
          <mxGeometry x="50" y="630" width="250" height="170" as="geometry" />
        </mxCell>
        <mxCell id="wZZv9N2_R3moH-HPPTqz-45" value="&lt;i&gt;main stack frame&lt;/i&gt;" style="text;html=1;strokeColor=none;fillColor=none;align=left;verticalAlign=middle;whiteSpace=wrap;rounded=0;" vertex="1" parent="1">
          <mxGeometry x="50" y="630" width="190" height="20" as="geometry" />
        </mxCell>
        <mxCell id="wZZv9N2_R3moH-HPPTqz-46" value="10" style="rounded=0;whiteSpace=wrap;html=1;" vertex="1" parent="1">
          <mxGeometry x="480" y="670" width="70" height="30" as="geometry" />
        </mxCell>
        <mxCell id="wZZv9N2_R3moH-HPPTqz-47" value="0x6FF0" style="text;html=1;align=center;verticalAlign=middle;whiteSpace=wrap;rounded=0;fontColor=#000000;" vertex="1" parent="1">
          <mxGeometry x="485" y="650" width="60" height="20" as="geometry" />
        </mxCell>
        <mxCell id="wZZv9N2_R3moH-HPPTqz-48" value="20" style="rounded=0;whiteSpace=wrap;html=1;" vertex="1" parent="1">
          <mxGeometry x="480" y="700" width="70" height="30" as="geometry" />
        </mxCell>
        <mxCell id="wZZv9N2_R3moH-HPPTqz-49" value="intList" style="text;html=1;strokeColor=none;fillColor=none;align=center;verticalAlign=middle;whiteSpace=wrap;rounded=0;" vertex="1" parent="1">
          <mxGeometry x="60" y="660" width="60" height="20" as="geometry" />
        </mxCell>
        <mxCell id="wZZv9N2_R3moH-HPPTqz-50" value="30" style="rounded=0;whiteSpace=wrap;html=1;" vertex="1" parent="1">
          <mxGeometry x="480" y="730" width="70" height="30" as="geometry" />
        </mxCell>
        <mxCell id="wZZv9N2_R3moH-HPPTqz-51" value="" style="group;align=right;" vertex="1" connectable="0" parent="1">
          <mxGeometry x="110" y="670" width="150" height="110" as="geometry" />
        </mxCell>
        <mxCell id="wZZv9N2_R3moH-HPPTqz-52" value="" style="rounded=0;whiteSpace=wrap;html=1;" vertex="1" parent="wZZv9N2_R3moH-HPPTqz-51">
          <mxGeometry width="150" height="110" as="geometry" />
        </mxCell>
        <mxCell id="wZZv9N2_R3moH-HPPTqz-53" value="" style="group" vertex="1" connectable="0" parent="wZZv9N2_R3moH-HPPTqz-51">
          <mxGeometry x="30" y="40" width="110" height="30" as="geometry" />
        </mxCell>
        <mxCell id="wZZv9N2_R3moH-HPPTqz-54" value="5" style="rounded=0;whiteSpace=wrap;html=1;" vertex="1" parent="wZZv9N2_R3moH-HPPTqz-53">
          <mxGeometry x="40" width="70" height="30" as="geometry" />
        </mxCell>
        <mxCell id="wZZv9N2_R3moH-HPPTqz-55" value="m_capacity" style="text;html=1;strokeColor=none;fillColor=none;align=right;verticalAlign=middle;whiteSpace=wrap;rounded=0;" vertex="1" parent="wZZv9N2_R3moH-HPPTqz-53">
          <mxGeometry x="-20" y="5" width="60" height="20" as="geometry" />
        </mxCell>
        <mxCell id="wZZv9N2_R3moH-HPPTqz-56" value="" style="group" vertex="1" connectable="0" parent="wZZv9N2_R3moH-HPPTqz-51">
          <mxGeometry x="30" y="70" width="110" height="30" as="geometry" />
        </mxCell>
        <mxCell id="wZZv9N2_R3moH-HPPTqz-57" value="0x6FF0" style="rounded=0;whiteSpace=wrap;html=1;" vertex="1" parent="wZZv9N2_R3moH-HPPTqz-56">
          <mxGeometry x="40" width="70" height="30" as="geometry" />
        </mxCell>
        <mxCell id="wZZv9N2_R3moH-HPPTqz-58" value="m_arr" style="text;html=1;strokeColor=none;fillColor=none;align=center;verticalAlign=middle;whiteSpace=wrap;rounded=0;" vertex="1" parent="wZZv9N2_R3moH-HPPTqz-56">
          <mxGeometry x="-20" y="5" width="60" height="20" as="geometry" />
        </mxCell>
        <mxCell id="wZZv9N2_R3moH-HPPTqz-59" value="" style="group" vertex="1" connectable="0" parent="wZZv9N2_R3moH-HPPTqz-51">
          <mxGeometry x="30" y="10" width="110" height="30" as="geometry" />
        </mxCell>
        <mxCell id="wZZv9N2_R3moH-HPPTqz-60" value="4" style="rounded=0;whiteSpace=wrap;html=1;" vertex="1" parent="wZZv9N2_R3moH-HPPTqz-59">
          <mxGeometry x="40" width="70" height="30" as="geometry" />
        </mxCell>
        <mxCell id="wZZv9N2_R3moH-HPPTqz-61" value="m_size" style="text;html=1;strokeColor=none;fillColor=none;align=right;verticalAlign=middle;whiteSpace=wrap;rounded=0;" vertex="1" parent="wZZv9N2_R3moH-HPPTqz-59">
          <mxGeometry x="-20" y="5" width="60" height="20" as="geometry" />
        </mxCell>
        <mxCell id="wZZv9N2_R3moH-HPPTqz-62" value="" style="curved=1;endArrow=classic;html=1;rounded=0;exitX=1;exitY=0.5;exitDx=0;exitDy=0;entryX=0;entryY=0;entryDx=0;entryDy=0;" edge="1" parent="1">
          <mxGeometry width="50" height="50" relative="1" as="geometry">
            <mxPoint x="260" y="715" as="sourcePoint" />
            <mxPoint x="480" y="670" as="targetPoint" />
            <Array as="points">
              <mxPoint x="350" y="720" />
              <mxPoint x="420" y="680" />
            </Array>
          </mxGeometry>
        </mxCell>
        <mxCell id="wZZv9N2_R3moH-HPPTqz-63" value="40" style="rounded=0;whiteSpace=wrap;html=1;" vertex="1" parent="1">
          <mxGeometry x="480" y="760" width="70" height="30" as="geometry" />
        </mxCell>
        <mxCell id="wZZv9N2_R3moH-HPPTqz-64" value="???" style="rounded=0;whiteSpace=wrap;html=1;fillColor=#f5f5f5;fontColor=#333333;strokeColor=#666666;" vertex="1" parent="1">
          <mxGeometry x="480" y="790" width="70" height="30" as="geometry" />
        </mxCell>
        <mxCell id="wZZv9N2_R3moH-HPPTqz-65" value="0" style="text;html=1;align=right;verticalAlign=middle;whiteSpace=wrap;rounded=0;fontColor=#000000;" vertex="1" parent="1">
          <mxGeometry x="440" y="670" width="40" height="30" as="geometry" />
        </mxCell>
        <mxCell id="wZZv9N2_R3moH-HPPTqz-66" value="1" style="text;html=1;align=right;verticalAlign=middle;whiteSpace=wrap;rounded=0;fontColor=#000000;" vertex="1" parent="1">
          <mxGeometry x="440" y="700" width="40" height="30" as="geometry" />
        </mxCell>
        <mxCell id="wZZv9N2_R3moH-HPPTqz-67" value="2" style="text;html=1;align=right;verticalAlign=middle;whiteSpace=wrap;rounded=0;fontColor=#000000;" vertex="1" parent="1">
          <mxGeometry x="440" y="730" width="40" height="30" as="geometry" />
        </mxCell>
        <mxCell id="wZZv9N2_R3moH-HPPTqz-68" value="3" style="text;html=1;align=right;verticalAlign=middle;whiteSpace=wrap;rounded=0;fontColor=#000000;" vertex="1" parent="1">
          <mxGeometry x="440" y="760" width="40" height="30" as="geometry" />
        </mxCell>
        <mxCell id="wZZv9N2_R3moH-HPPTqz-69" value="4" style="text;html=1;align=right;verticalAlign=middle;whiteSpace=wrap;rounded=0;fontColor=#000000;" vertex="1" parent="1">
          <mxGeometry x="440" y="790" width="40" height="30" as="geometry" />
        </mxCell>
        <mxCell id="wZZv9N2_R3moH-HPPTqz-70" value="Heap" style="rounded=0;whiteSpace=wrap;html=1;dashed=1;verticalAlign=top;fontStyle=1;fillColor=#d5e8d4;strokeColor=#82b366;fontColor=#000000;" vertex="1" parent="1">
          <mxGeometry x="380" y="880" width="370" height="240" as="geometry" />
        </mxCell>
        <mxCell id="wZZv9N2_R3moH-HPPTqz-71" value="Stack" style="rounded=0;whiteSpace=wrap;html=1;dashed=1;verticalAlign=top;fontStyle=1;fillColor=#fff2cc;strokeColor=#d6b656;fontColor=#000000;" vertex="1" parent="1">
          <mxGeometry x="40" y="880" width="280" height="240" as="geometry" />
        </mxCell>
        <mxCell id="wZZv9N2_R3moH-HPPTqz-72" value="" style="rounded=0;whiteSpace=wrap;html=1;" vertex="1" parent="1">
          <mxGeometry x="50" y="910" width="250" height="170" as="geometry" />
        </mxCell>
        <mxCell id="wZZv9N2_R3moH-HPPTqz-73" value="&lt;i&gt;main stack frame&lt;/i&gt;" style="text;html=1;strokeColor=none;fillColor=none;align=left;verticalAlign=middle;whiteSpace=wrap;rounded=0;" vertex="1" parent="1">
          <mxGeometry x="50" y="910" width="190" height="20" as="geometry" />
        </mxCell>
        <mxCell id="wZZv9N2_R3moH-HPPTqz-74" value="10" style="rounded=0;whiteSpace=wrap;html=1;" vertex="1" parent="1">
          <mxGeometry x="480" y="950" width="70" height="30" as="geometry" />
        </mxCell>
        <mxCell id="wZZv9N2_R3moH-HPPTqz-75" value="0x6FF0" style="text;html=1;align=center;verticalAlign=middle;whiteSpace=wrap;rounded=0;fontColor=#000000;" vertex="1" parent="1">
          <mxGeometry x="485" y="930" width="60" height="20" as="geometry" />
        </mxCell>
        <mxCell id="wZZv9N2_R3moH-HPPTqz-76" value="20" style="rounded=0;whiteSpace=wrap;html=1;" vertex="1" parent="1">
          <mxGeometry x="480" y="980" width="70" height="30" as="geometry" />
        </mxCell>
        <mxCell id="wZZv9N2_R3moH-HPPTqz-77" value="intList" style="text;html=1;strokeColor=none;fillColor=none;align=center;verticalAlign=middle;whiteSpace=wrap;rounded=0;" vertex="1" parent="1">
          <mxGeometry x="60" y="940" width="60" height="20" as="geometry" />
        </mxCell>
        <mxCell id="wZZv9N2_R3moH-HPPTqz-78" value="30" style="rounded=0;whiteSpace=wrap;html=1;" vertex="1" parent="1">
          <mxGeometry x="480" y="1010" width="70" height="30" as="geometry" />
        </mxCell>
        <mxCell id="wZZv9N2_R3moH-HPPTqz-79" value="" style="group;align=right;" vertex="1" connectable="0" parent="1">
          <mxGeometry x="110" y="950" width="150" height="110" as="geometry" />
        </mxCell>
        <mxCell id="wZZv9N2_R3moH-HPPTqz-80" value="" style="rounded=0;whiteSpace=wrap;html=1;" vertex="1" parent="wZZv9N2_R3moH-HPPTqz-79">
          <mxGeometry width="150" height="110" as="geometry" />
        </mxCell>
        <mxCell id="wZZv9N2_R3moH-HPPTqz-81" value="" style="group" vertex="1" connectable="0" parent="wZZv9N2_R3moH-HPPTqz-79">
          <mxGeometry x="30" y="40" width="110" height="30" as="geometry" />
        </mxCell>
        <mxCell id="wZZv9N2_R3moH-HPPTqz-82" value="5" style="rounded=0;whiteSpace=wrap;html=1;" vertex="1" parent="wZZv9N2_R3moH-HPPTqz-81">
          <mxGeometry x="40" width="70" height="30" as="geometry" />
        </mxCell>
        <mxCell id="wZZv9N2_R3moH-HPPTqz-83" value="m_capacity" style="text;html=1;strokeColor=none;fillColor=none;align=right;verticalAlign=middle;whiteSpace=wrap;rounded=0;" vertex="1" parent="wZZv9N2_R3moH-HPPTqz-81">
          <mxGeometry x="-20" y="5" width="60" height="20" as="geometry" />
        </mxCell>
        <mxCell id="wZZv9N2_R3moH-HPPTqz-84" value="" style="group" vertex="1" connectable="0" parent="wZZv9N2_R3moH-HPPTqz-79">
          <mxGeometry x="30" y="70" width="110" height="30" as="geometry" />
        </mxCell>
        <mxCell id="wZZv9N2_R3moH-HPPTqz-85" value="0x6FF0" style="rounded=0;whiteSpace=wrap;html=1;" vertex="1" parent="wZZv9N2_R3moH-HPPTqz-84">
          <mxGeometry x="40" width="70" height="30" as="geometry" />
        </mxCell>
        <mxCell id="wZZv9N2_R3moH-HPPTqz-86" value="m_arr" style="text;html=1;strokeColor=none;fillColor=none;align=center;verticalAlign=middle;whiteSpace=wrap;rounded=0;" vertex="1" parent="wZZv9N2_R3moH-HPPTqz-84">
          <mxGeometry x="-20" y="5" width="60" height="20" as="geometry" />
        </mxCell>
        <mxCell id="wZZv9N2_R3moH-HPPTqz-87" value="" style="group" vertex="1" connectable="0" parent="wZZv9N2_R3moH-HPPTqz-79">
          <mxGeometry x="30" y="10" width="110" height="30" as="geometry" />
        </mxCell>
        <mxCell id="wZZv9N2_R3moH-HPPTqz-88" value="3" style="rounded=0;whiteSpace=wrap;html=1;" vertex="1" parent="wZZv9N2_R3moH-HPPTqz-87">
          <mxGeometry x="40" width="70" height="30" as="geometry" />
        </mxCell>
        <mxCell id="wZZv9N2_R3moH-HPPTqz-89" value="m_size" style="text;html=1;strokeColor=none;fillColor=none;align=right;verticalAlign=middle;whiteSpace=wrap;rounded=0;" vertex="1" parent="wZZv9N2_R3moH-HPPTqz-87">
          <mxGeometry x="-20" y="5" width="60" height="20" as="geometry" />
        </mxCell>
        <mxCell id="wZZv9N2_R3moH-HPPTqz-90" value="" style="curved=1;endArrow=classic;html=1;rounded=0;exitX=1;exitY=0.5;exitDx=0;exitDy=0;entryX=0;entryY=0;entryDx=0;entryDy=0;" edge="1" parent="1">
          <mxGeometry width="50" height="50" relative="1" as="geometry">
            <mxPoint x="260" y="995" as="sourcePoint" />
            <mxPoint x="480" y="950" as="targetPoint" />
            <Array as="points">
              <mxPoint x="350" y="1000" />
              <mxPoint x="420" y="960" />
            </Array>
          </mxGeometry>
        </mxCell>
        <mxCell id="wZZv9N2_R3moH-HPPTqz-91" value="40" style="rounded=0;whiteSpace=wrap;html=1;fillColor=#f5f5f5;fontColor=#333333;strokeColor=#666666;" vertex="1" parent="1">
          <mxGeometry x="480" y="1040" width="70" height="30" as="geometry" />
        </mxCell>
        <mxCell id="wZZv9N2_R3moH-HPPTqz-92" value="???" style="rounded=0;whiteSpace=wrap;html=1;fillColor=#f5f5f5;fontColor=#333333;strokeColor=#666666;" vertex="1" parent="1">
          <mxGeometry x="480" y="1070" width="70" height="30" as="geometry" />
        </mxCell>
        <mxCell id="wZZv9N2_R3moH-HPPTqz-93" value="0" style="text;html=1;align=right;verticalAlign=middle;whiteSpace=wrap;rounded=0;fontColor=#000000;" vertex="1" parent="1">
          <mxGeometry x="440" y="950" width="40" height="30" as="geometry" />
        </mxCell>
        <mxCell id="wZZv9N2_R3moH-HPPTqz-94" value="1" style="text;html=1;align=right;verticalAlign=middle;whiteSpace=wrap;rounded=0;fontColor=#000000;" vertex="1" parent="1">
          <mxGeometry x="440" y="980" width="40" height="30" as="geometry" />
        </mxCell>
        <mxCell id="wZZv9N2_R3moH-HPPTqz-95" value="2" style="text;html=1;align=right;verticalAlign=middle;whiteSpace=wrap;rounded=0;fontColor=#000000;" vertex="1" parent="1">
          <mxGeometry x="440" y="1010" width="40" height="30" as="geometry" />
        </mxCell>
        <mxCell id="wZZv9N2_R3moH-HPPTqz-96" value="3" style="text;html=1;align=right;verticalAlign=middle;whiteSpace=wrap;rounded=0;fontColor=#000000;" vertex="1" parent="1">
          <mxGeometry x="440" y="1040" width="40" height="30" as="geometry" />
        </mxCell>
        <mxCell id="wZZv9N2_R3moH-HPPTqz-97" value="4" style="text;html=1;align=right;verticalAlign=middle;whiteSpace=wrap;rounded=0;fontColor=#000000;" vertex="1" parent="1">
          <mxGeometry x="440" y="1070" width="40" height="30" as="geometry" />
        </mxCell>
      </root>
    </mxGraphModel>
  </diagram>
  <diagram id="MJLcyqqrafRHc2M93sP6" name="array-list-grow">
    <mxGraphModel dx="995" dy="717" grid="1" gridSize="10" guides="1" tooltips="1" connect="1" arrows="1" fold="1" page="1" pageScale="1" pageWidth="850" pageHeight="1100" math="0" shadow="0">
      <root>
        <mxCell id="0" />
        <mxCell id="1" parent="0" />
        <mxCell id="dEsfGkpWCjNUA5EiApFV-1" value="Heap" style="rounded=0;whiteSpace=wrap;html=1;dashed=1;verticalAlign=top;fontStyle=1;fillColor=#d5e8d4;strokeColor=#82b366;fontColor=#000000;" vertex="1" parent="1">
          <mxGeometry x="380" y="40" width="370" height="280" as="geometry" />
        </mxCell>
        <mxCell id="dEsfGkpWCjNUA5EiApFV-2" value="Stack" style="rounded=0;whiteSpace=wrap;html=1;dashed=1;verticalAlign=top;fontStyle=1;fillColor=#fff2cc;strokeColor=#d6b656;fontColor=#000000;" vertex="1" parent="1">
          <mxGeometry x="40" y="40" width="280" height="280" as="geometry" />
        </mxCell>
        <mxCell id="dEsfGkpWCjNUA5EiApFV-5" value="10" style="rounded=0;whiteSpace=wrap;html=1;" vertex="1" parent="1">
          <mxGeometry x="480" y="110" width="70" height="30" as="geometry" />
        </mxCell>
        <mxCell id="dEsfGkpWCjNUA5EiApFV-6" value="0x6FF0" style="text;html=1;align=center;verticalAlign=middle;whiteSpace=wrap;rounded=0;fontColor=#000000;" vertex="1" parent="1">
          <mxGeometry x="485" y="90" width="60" height="20" as="geometry" />
        </mxCell>
        <mxCell id="dEsfGkpWCjNUA5EiApFV-7" value="20" style="rounded=0;whiteSpace=wrap;html=1;" vertex="1" parent="1">
          <mxGeometry x="480" y="140" width="70" height="30" as="geometry" />
        </mxCell>
        <mxCell id="dEsfGkpWCjNUA5EiApFV-9" value="30" style="rounded=0;whiteSpace=wrap;html=1;" vertex="1" parent="1">
          <mxGeometry x="480" y="170" width="70" height="30" as="geometry" />
        </mxCell>
        <mxCell id="dEsfGkpWCjNUA5EiApFV-24" value="0" style="text;html=1;align=right;verticalAlign=middle;whiteSpace=wrap;rounded=0;fontColor=#000000;" vertex="1" parent="1">
          <mxGeometry x="440" y="110" width="40" height="30" as="geometry" />
        </mxCell>
        <mxCell id="dEsfGkpWCjNUA5EiApFV-25" value="1" style="text;html=1;align=right;verticalAlign=middle;whiteSpace=wrap;rounded=0;fontColor=#000000;" vertex="1" parent="1">
          <mxGeometry x="440" y="140" width="40" height="30" as="geometry" />
        </mxCell>
        <mxCell id="dEsfGkpWCjNUA5EiApFV-26" value="2" style="text;html=1;align=right;verticalAlign=middle;whiteSpace=wrap;rounded=0;fontColor=#000000;" vertex="1" parent="1">
          <mxGeometry x="440" y="170" width="40" height="30" as="geometry" />
        </mxCell>
        <mxCell id="dEsfGkpWCjNUA5EiApFV-90" value="" style="group" vertex="1" connectable="0" parent="1">
          <mxGeometry x="55" y="70" width="250" height="40" as="geometry" />
        </mxCell>
        <mxCell id="dEsfGkpWCjNUA5EiApFV-76" value="..." style="rounded=0;whiteSpace=wrap;html=1;" vertex="1" parent="dEsfGkpWCjNUA5EiApFV-90">
          <mxGeometry width="250" height="40" as="geometry" />
        </mxCell>
        <mxCell id="dEsfGkpWCjNUA5EiApFV-77" value="&lt;i&gt;main stack frame&lt;/i&gt;" style="text;html=1;strokeColor=none;fillColor=none;align=left;verticalAlign=middle;whiteSpace=wrap;rounded=0;" vertex="1" parent="dEsfGkpWCjNUA5EiApFV-90">
          <mxGeometry width="190" height="20" as="geometry" />
        </mxCell>
        <mxCell id="dEsfGkpWCjNUA5EiApFV-3" value="" style="rounded=0;whiteSpace=wrap;html=1;" vertex="1" parent="1">
          <mxGeometry x="55" y="110" width="250" height="200" as="geometry" />
        </mxCell>
        <mxCell id="dEsfGkpWCjNUA5EiApFV-4" value="&lt;i&gt;grow stack frame&lt;/i&gt;" style="text;html=1;strokeColor=none;fillColor=none;align=left;verticalAlign=middle;whiteSpace=wrap;rounded=0;" vertex="1" parent="1">
          <mxGeometry x="55" y="110" width="190" height="20" as="geometry" />
        </mxCell>
        <mxCell id="dEsfGkpWCjNUA5EiApFV-8" value="this" style="text;html=1;strokeColor=none;fillColor=none;align=center;verticalAlign=middle;whiteSpace=wrap;rounded=0;" vertex="1" parent="1">
          <mxGeometry x="65" y="150" width="60" height="20" as="geometry" />
        </mxCell>
        <mxCell id="dEsfGkpWCjNUA5EiApFV-10" value="" style="group;align=right;" vertex="1" connectable="0" parent="1">
          <mxGeometry x="115" y="150" width="150" height="110" as="geometry" />
        </mxCell>
        <mxCell id="dEsfGkpWCjNUA5EiApFV-11" value="" style="rounded=0;whiteSpace=wrap;html=1;" vertex="1" parent="dEsfGkpWCjNUA5EiApFV-10">
          <mxGeometry width="150" height="110" as="geometry" />
        </mxCell>
        <mxCell id="dEsfGkpWCjNUA5EiApFV-12" value="" style="group" vertex="1" connectable="0" parent="dEsfGkpWCjNUA5EiApFV-10">
          <mxGeometry x="30" y="40" width="110" height="30" as="geometry" />
        </mxCell>
        <mxCell id="dEsfGkpWCjNUA5EiApFV-13" value="3" style="rounded=0;whiteSpace=wrap;html=1;" vertex="1" parent="dEsfGkpWCjNUA5EiApFV-12">
          <mxGeometry x="40" width="70" height="30" as="geometry" />
        </mxCell>
        <mxCell id="dEsfGkpWCjNUA5EiApFV-14" value="m_capacity" style="text;html=1;strokeColor=none;fillColor=none;align=right;verticalAlign=middle;whiteSpace=wrap;rounded=0;" vertex="1" parent="dEsfGkpWCjNUA5EiApFV-12">
          <mxGeometry x="-20" y="5" width="60" height="20" as="geometry" />
        </mxCell>
        <mxCell id="dEsfGkpWCjNUA5EiApFV-15" value="" style="group" vertex="1" connectable="0" parent="dEsfGkpWCjNUA5EiApFV-10">
          <mxGeometry x="30" y="70" width="110" height="30" as="geometry" />
        </mxCell>
        <mxCell id="dEsfGkpWCjNUA5EiApFV-16" value="0x6FF0" style="rounded=0;whiteSpace=wrap;html=1;" vertex="1" parent="dEsfGkpWCjNUA5EiApFV-15">
          <mxGeometry x="40" width="70" height="30" as="geometry" />
        </mxCell>
        <mxCell id="dEsfGkpWCjNUA5EiApFV-17" value="m_arr" style="text;html=1;strokeColor=none;fillColor=none;align=center;verticalAlign=middle;whiteSpace=wrap;rounded=0;" vertex="1" parent="dEsfGkpWCjNUA5EiApFV-15">
          <mxGeometry x="-20" y="5" width="60" height="20" as="geometry" />
        </mxCell>
        <mxCell id="dEsfGkpWCjNUA5EiApFV-18" value="" style="group" vertex="1" connectable="0" parent="dEsfGkpWCjNUA5EiApFV-10">
          <mxGeometry x="30" y="10" width="110" height="30" as="geometry" />
        </mxCell>
        <mxCell id="dEsfGkpWCjNUA5EiApFV-19" value="3" style="rounded=0;whiteSpace=wrap;html=1;" vertex="1" parent="dEsfGkpWCjNUA5EiApFV-18">
          <mxGeometry x="40" width="70" height="30" as="geometry" />
        </mxCell>
        <mxCell id="dEsfGkpWCjNUA5EiApFV-20" value="m_size" style="text;html=1;strokeColor=none;fillColor=none;align=right;verticalAlign=middle;whiteSpace=wrap;rounded=0;" vertex="1" parent="dEsfGkpWCjNUA5EiApFV-18">
          <mxGeometry x="-20" y="5" width="60" height="20" as="geometry" />
        </mxCell>
        <mxCell id="dEsfGkpWCjNUA5EiApFV-21" value="" style="curved=1;endArrow=classic;html=1;rounded=0;exitX=1;exitY=0.5;exitDx=0;exitDy=0;entryX=0;entryY=0;entryDx=0;entryDy=0;" edge="1" parent="1" source="dEsfGkpWCjNUA5EiApFV-16">
          <mxGeometry width="50" height="50" relative="1" as="geometry">
            <mxPoint x="260" y="155" as="sourcePoint" />
            <mxPoint x="480" y="110" as="targetPoint" />
            <Array as="points">
              <mxPoint x="350" y="160" />
              <mxPoint x="420" y="120" />
            </Array>
          </mxGeometry>
        </mxCell>
        <mxCell id="dEsfGkpWCjNUA5EiApFV-93" value="Heap" style="rounded=0;whiteSpace=wrap;html=1;dashed=1;verticalAlign=top;fontStyle=1;fillColor=#d5e8d4;strokeColor=#82b366;fontColor=#000000;" vertex="1" parent="1">
          <mxGeometry x="380" y="350" width="370" height="280" as="geometry" />
        </mxCell>
        <mxCell id="dEsfGkpWCjNUA5EiApFV-94" value="Stack" style="rounded=0;whiteSpace=wrap;html=1;dashed=1;verticalAlign=top;fontStyle=1;fillColor=#fff2cc;strokeColor=#d6b656;fontColor=#000000;" vertex="1" parent="1">
          <mxGeometry x="40" y="350" width="280" height="280" as="geometry" />
        </mxCell>
        <mxCell id="dEsfGkpWCjNUA5EiApFV-95" value="10" style="rounded=0;whiteSpace=wrap;html=1;" vertex="1" parent="1">
          <mxGeometry x="480" y="420" width="70" height="30" as="geometry" />
        </mxCell>
        <mxCell id="dEsfGkpWCjNUA5EiApFV-96" value="0x6FF0" style="text;html=1;align=center;verticalAlign=middle;whiteSpace=wrap;rounded=0;fontColor=#000000;" vertex="1" parent="1">
          <mxGeometry x="485" y="400" width="60" height="20" as="geometry" />
        </mxCell>
        <mxCell id="dEsfGkpWCjNUA5EiApFV-97" value="20" style="rounded=0;whiteSpace=wrap;html=1;" vertex="1" parent="1">
          <mxGeometry x="480" y="450" width="70" height="30" as="geometry" />
        </mxCell>
        <mxCell id="dEsfGkpWCjNUA5EiApFV-98" value="30" style="rounded=0;whiteSpace=wrap;html=1;" vertex="1" parent="1">
          <mxGeometry x="480" y="480" width="70" height="30" as="geometry" />
        </mxCell>
        <mxCell id="dEsfGkpWCjNUA5EiApFV-99" value="0" style="text;html=1;align=right;verticalAlign=middle;whiteSpace=wrap;rounded=0;fontColor=#000000;" vertex="1" parent="1">
          <mxGeometry x="440" y="420" width="40" height="30" as="geometry" />
        </mxCell>
        <mxCell id="dEsfGkpWCjNUA5EiApFV-100" value="1" style="text;html=1;align=right;verticalAlign=middle;whiteSpace=wrap;rounded=0;fontColor=#000000;" vertex="1" parent="1">
          <mxGeometry x="440" y="450" width="40" height="30" as="geometry" />
        </mxCell>
        <mxCell id="dEsfGkpWCjNUA5EiApFV-101" value="2" style="text;html=1;align=right;verticalAlign=middle;whiteSpace=wrap;rounded=0;fontColor=#000000;" vertex="1" parent="1">
          <mxGeometry x="440" y="480" width="40" height="30" as="geometry" />
        </mxCell>
        <mxCell id="dEsfGkpWCjNUA5EiApFV-102" value="" style="group" vertex="1" connectable="0" parent="1">
          <mxGeometry x="55" y="380" width="250" height="40" as="geometry" />
        </mxCell>
        <mxCell id="dEsfGkpWCjNUA5EiApFV-103" value="..." style="rounded=0;whiteSpace=wrap;html=1;" vertex="1" parent="dEsfGkpWCjNUA5EiApFV-102">
          <mxGeometry width="250" height="40" as="geometry" />
        </mxCell>
        <mxCell id="dEsfGkpWCjNUA5EiApFV-104" value="&lt;i&gt;main stack frame&lt;/i&gt;" style="text;html=1;strokeColor=none;fillColor=none;align=left;verticalAlign=middle;whiteSpace=wrap;rounded=0;" vertex="1" parent="dEsfGkpWCjNUA5EiApFV-102">
          <mxGeometry width="190" height="20" as="geometry" />
        </mxCell>
        <mxCell id="dEsfGkpWCjNUA5EiApFV-105" value="" style="rounded=0;whiteSpace=wrap;html=1;" vertex="1" parent="1">
          <mxGeometry x="55" y="420" width="250" height="200" as="geometry" />
        </mxCell>
        <mxCell id="dEsfGkpWCjNUA5EiApFV-106" value="&lt;i&gt;grow stack frame&lt;/i&gt;" style="text;html=1;strokeColor=none;fillColor=none;align=left;verticalAlign=middle;whiteSpace=wrap;rounded=0;" vertex="1" parent="1">
          <mxGeometry x="55" y="420" width="190" height="20" as="geometry" />
        </mxCell>
        <mxCell id="dEsfGkpWCjNUA5EiApFV-107" value="this" style="text;html=1;strokeColor=none;fillColor=none;align=center;verticalAlign=middle;whiteSpace=wrap;rounded=0;" vertex="1" parent="1">
          <mxGeometry x="65" y="460" width="60" height="20" as="geometry" />
        </mxCell>
        <mxCell id="dEsfGkpWCjNUA5EiApFV-109" value="" style="rounded=0;whiteSpace=wrap;html=1;" vertex="1" parent="1">
          <mxGeometry x="115" y="460" width="150" height="110" as="geometry" />
        </mxCell>
        <mxCell id="dEsfGkpWCjNUA5EiApFV-110" value="" style="group" vertex="1" connectable="0" parent="1">
          <mxGeometry x="145" y="500" width="110" height="30" as="geometry" />
        </mxCell>
        <mxCell id="dEsfGkpWCjNUA5EiApFV-111" value="6" style="rounded=0;whiteSpace=wrap;html=1;fillColor=#dae8fc;strokeColor=#6c8ebf;" vertex="1" parent="dEsfGkpWCjNUA5EiApFV-110">
          <mxGeometry x="40" width="70" height="30" as="geometry" />
        </mxCell>
        <mxCell id="dEsfGkpWCjNUA5EiApFV-112" value="m_capacity" style="text;html=1;strokeColor=none;fillColor=none;align=right;verticalAlign=middle;whiteSpace=wrap;rounded=0;" vertex="1" parent="dEsfGkpWCjNUA5EiApFV-110">
          <mxGeometry x="-20" y="5" width="60" height="20" as="geometry" />
        </mxCell>
        <mxCell id="dEsfGkpWCjNUA5EiApFV-113" value="" style="group" vertex="1" connectable="0" parent="1">
          <mxGeometry x="145" y="530" width="110" height="30" as="geometry" />
        </mxCell>
        <mxCell id="dEsfGkpWCjNUA5EiApFV-114" value="0x6FF0" style="rounded=0;whiteSpace=wrap;html=1;" vertex="1" parent="dEsfGkpWCjNUA5EiApFV-113">
          <mxGeometry x="40" width="70" height="30" as="geometry" />
        </mxCell>
        <mxCell id="dEsfGkpWCjNUA5EiApFV-115" value="m_arr" style="text;html=1;strokeColor=none;fillColor=none;align=center;verticalAlign=middle;whiteSpace=wrap;rounded=0;" vertex="1" parent="dEsfGkpWCjNUA5EiApFV-113">
          <mxGeometry x="-20" y="5" width="60" height="20" as="geometry" />
        </mxCell>
        <mxCell id="dEsfGkpWCjNUA5EiApFV-116" value="" style="group" vertex="1" connectable="0" parent="1">
          <mxGeometry x="145" y="470" width="110" height="30" as="geometry" />
        </mxCell>
        <mxCell id="dEsfGkpWCjNUA5EiApFV-117" value="3" style="rounded=0;whiteSpace=wrap;html=1;" vertex="1" parent="dEsfGkpWCjNUA5EiApFV-116">
          <mxGeometry x="40" width="70" height="30" as="geometry" />
        </mxCell>
        <mxCell id="dEsfGkpWCjNUA5EiApFV-118" value="m_size" style="text;html=1;strokeColor=none;fillColor=none;align=right;verticalAlign=middle;whiteSpace=wrap;rounded=0;" vertex="1" parent="dEsfGkpWCjNUA5EiApFV-116">
          <mxGeometry x="-20" y="5" width="60" height="20" as="geometry" />
        </mxCell>
        <mxCell id="dEsfGkpWCjNUA5EiApFV-120" value="Heap" style="rounded=0;whiteSpace=wrap;html=1;dashed=1;verticalAlign=top;fontStyle=1;fillColor=#d5e8d4;strokeColor=#82b366;fontColor=#000000;" vertex="1" parent="1">
          <mxGeometry x="380" y="660" width="370" height="280" as="geometry" />
        </mxCell>
        <mxCell id="dEsfGkpWCjNUA5EiApFV-121" value="Stack" style="rounded=0;whiteSpace=wrap;html=1;dashed=1;verticalAlign=top;fontStyle=1;fillColor=#fff2cc;strokeColor=#d6b656;fontColor=#000000;" vertex="1" parent="1">
          <mxGeometry x="40" y="660" width="280" height="280" as="geometry" />
        </mxCell>
        <mxCell id="dEsfGkpWCjNUA5EiApFV-122" value="10" style="rounded=0;whiteSpace=wrap;html=1;" vertex="1" parent="1">
          <mxGeometry x="480" y="730" width="70" height="30" as="geometry" />
        </mxCell>
        <mxCell id="dEsfGkpWCjNUA5EiApFV-123" value="0x6FF0" style="text;html=1;align=center;verticalAlign=middle;whiteSpace=wrap;rounded=0;fontColor=#000000;" vertex="1" parent="1">
          <mxGeometry x="485" y="710" width="60" height="20" as="geometry" />
        </mxCell>
        <mxCell id="dEsfGkpWCjNUA5EiApFV-124" value="20" style="rounded=0;whiteSpace=wrap;html=1;" vertex="1" parent="1">
          <mxGeometry x="480" y="760" width="70" height="30" as="geometry" />
        </mxCell>
        <mxCell id="dEsfGkpWCjNUA5EiApFV-125" value="30" style="rounded=0;whiteSpace=wrap;html=1;" vertex="1" parent="1">
          <mxGeometry x="480" y="790" width="70" height="30" as="geometry" />
        </mxCell>
        <mxCell id="dEsfGkpWCjNUA5EiApFV-126" value="0" style="text;html=1;align=right;verticalAlign=middle;whiteSpace=wrap;rounded=0;fontColor=#000000;" vertex="1" parent="1">
          <mxGeometry x="440" y="730" width="40" height="30" as="geometry" />
        </mxCell>
        <mxCell id="dEsfGkpWCjNUA5EiApFV-127" value="1" style="text;html=1;align=right;verticalAlign=middle;whiteSpace=wrap;rounded=0;fontColor=#000000;" vertex="1" parent="1">
          <mxGeometry x="440" y="760" width="40" height="30" as="geometry" />
        </mxCell>
        <mxCell id="dEsfGkpWCjNUA5EiApFV-128" value="2" style="text;html=1;align=right;verticalAlign=middle;whiteSpace=wrap;rounded=0;fontColor=#000000;" vertex="1" parent="1">
          <mxGeometry x="440" y="790" width="40" height="30" as="geometry" />
        </mxCell>
        <mxCell id="dEsfGkpWCjNUA5EiApFV-129" value="" style="group" vertex="1" connectable="0" parent="1">
          <mxGeometry x="55" y="690" width="250" height="40" as="geometry" />
        </mxCell>
        <mxCell id="dEsfGkpWCjNUA5EiApFV-130" value="..." style="rounded=0;whiteSpace=wrap;html=1;" vertex="1" parent="dEsfGkpWCjNUA5EiApFV-129">
          <mxGeometry width="250" height="40" as="geometry" />
        </mxCell>
        <mxCell id="dEsfGkpWCjNUA5EiApFV-131" value="&lt;i&gt;main stack frame&lt;/i&gt;" style="text;html=1;strokeColor=none;fillColor=none;align=left;verticalAlign=middle;whiteSpace=wrap;rounded=0;" vertex="1" parent="dEsfGkpWCjNUA5EiApFV-129">
          <mxGeometry width="190" height="20" as="geometry" />
        </mxCell>
        <mxCell id="dEsfGkpWCjNUA5EiApFV-132" value="" style="rounded=0;whiteSpace=wrap;html=1;" vertex="1" parent="1">
          <mxGeometry x="55" y="730" width="250" height="200" as="geometry" />
        </mxCell>
        <mxCell id="dEsfGkpWCjNUA5EiApFV-133" value="&lt;i&gt;grow stack frame&lt;/i&gt;" style="text;html=1;strokeColor=none;fillColor=none;align=left;verticalAlign=middle;whiteSpace=wrap;rounded=0;" vertex="1" parent="1">
          <mxGeometry x="55" y="730" width="190" height="20" as="geometry" />
        </mxCell>
        <mxCell id="dEsfGkpWCjNUA5EiApFV-134" value="this" style="text;html=1;strokeColor=none;fillColor=none;align=center;verticalAlign=middle;whiteSpace=wrap;rounded=0;" vertex="1" parent="1">
          <mxGeometry x="65" y="770" width="60" height="20" as="geometry" />
        </mxCell>
        <mxCell id="dEsfGkpWCjNUA5EiApFV-136" value="" style="rounded=0;whiteSpace=wrap;html=1;" vertex="1" parent="1">
          <mxGeometry x="115" y="770" width="150" height="110" as="geometry" />
        </mxCell>
        <mxCell id="dEsfGkpWCjNUA5EiApFV-137" value="" style="group" vertex="1" connectable="0" parent="1">
          <mxGeometry x="145" y="810" width="110" height="30" as="geometry" />
        </mxCell>
        <mxCell id="dEsfGkpWCjNUA5EiApFV-138" value="6" style="rounded=0;whiteSpace=wrap;html=1;" vertex="1" parent="dEsfGkpWCjNUA5EiApFV-137">
          <mxGeometry x="40" width="70" height="30" as="geometry" />
        </mxCell>
        <mxCell id="dEsfGkpWCjNUA5EiApFV-139" value="m_capacity" style="text;html=1;strokeColor=none;fillColor=none;align=right;verticalAlign=middle;whiteSpace=wrap;rounded=0;" vertex="1" parent="dEsfGkpWCjNUA5EiApFV-137">
          <mxGeometry x="-20" y="5" width="60" height="20" as="geometry" />
        </mxCell>
        <mxCell id="dEsfGkpWCjNUA5EiApFV-140" value="" style="group" vertex="1" connectable="0" parent="1">
          <mxGeometry x="145" y="840" width="110" height="30" as="geometry" />
        </mxCell>
        <mxCell id="dEsfGkpWCjNUA5EiApFV-141" value="0x6FF0" style="rounded=0;whiteSpace=wrap;html=1;" vertex="1" parent="dEsfGkpWCjNUA5EiApFV-140">
          <mxGeometry x="40" width="70" height="30" as="geometry" />
        </mxCell>
        <mxCell id="dEsfGkpWCjNUA5EiApFV-142" value="m_arr" style="text;html=1;strokeColor=none;fillColor=none;align=center;verticalAlign=middle;whiteSpace=wrap;rounded=0;" vertex="1" parent="dEsfGkpWCjNUA5EiApFV-140">
          <mxGeometry x="-20" y="5" width="60" height="20" as="geometry" />
        </mxCell>
        <mxCell id="dEsfGkpWCjNUA5EiApFV-143" value="" style="group" vertex="1" connectable="0" parent="1">
          <mxGeometry x="145" y="780" width="110" height="30" as="geometry" />
        </mxCell>
        <mxCell id="dEsfGkpWCjNUA5EiApFV-144" value="3" style="rounded=0;whiteSpace=wrap;html=1;" vertex="1" parent="dEsfGkpWCjNUA5EiApFV-143">
          <mxGeometry x="40" width="70" height="30" as="geometry" />
        </mxCell>
        <mxCell id="dEsfGkpWCjNUA5EiApFV-145" value="m_size" style="text;html=1;strokeColor=none;fillColor=none;align=right;verticalAlign=middle;whiteSpace=wrap;rounded=0;" vertex="1" parent="dEsfGkpWCjNUA5EiApFV-143">
          <mxGeometry x="-20" y="5" width="60" height="20" as="geometry" />
        </mxCell>
        <mxCell id="dEsfGkpWCjNUA5EiApFV-146" value="" style="group" vertex="1" connectable="0" parent="1">
          <mxGeometry x="75" y="889" width="110" height="30" as="geometry" />
        </mxCell>
        <mxCell id="dEsfGkpWCjNUA5EiApFV-147" value="0x4080" style="rounded=0;whiteSpace=wrap;html=1;fillColor=#dae8fc;strokeColor=#6c8ebf;" vertex="1" parent="dEsfGkpWCjNUA5EiApFV-146">
          <mxGeometry x="40" width="70" height="30" as="geometry" />
        </mxCell>
        <mxCell id="dEsfGkpWCjNUA5EiApFV-148" value="newArr&amp;nbsp;" style="text;html=1;strokeColor=none;fillColor=none;align=right;verticalAlign=middle;whiteSpace=wrap;rounded=0;" vertex="1" parent="dEsfGkpWCjNUA5EiApFV-146">
          <mxGeometry x="-20" y="5" width="60" height="20" as="geometry" />
        </mxCell>
        <mxCell id="dEsfGkpWCjNUA5EiApFV-149" value="???" style="rounded=0;whiteSpace=wrap;html=1;" vertex="1" parent="1">
          <mxGeometry x="640" y="710" width="70" height="30" as="geometry" />
        </mxCell>
        <mxCell id="dEsfGkpWCjNUA5EiApFV-150" value="0x04080" style="text;html=1;align=center;verticalAlign=middle;whiteSpace=wrap;rounded=0;fontColor=#000000;" vertex="1" parent="1">
          <mxGeometry x="645" y="690" width="60" height="20" as="geometry" />
        </mxCell>
        <mxCell id="dEsfGkpWCjNUA5EiApFV-151" value="???" style="rounded=0;whiteSpace=wrap;html=1;" vertex="1" parent="1">
          <mxGeometry x="640" y="740" width="70" height="30" as="geometry" />
        </mxCell>
        <mxCell id="dEsfGkpWCjNUA5EiApFV-152" value="???" style="rounded=0;whiteSpace=wrap;html=1;" vertex="1" parent="1">
          <mxGeometry x="640" y="770" width="70" height="30" as="geometry" />
        </mxCell>
        <mxCell id="dEsfGkpWCjNUA5EiApFV-153" value="0" style="text;html=1;align=right;verticalAlign=middle;whiteSpace=wrap;rounded=0;fontColor=#000000;" vertex="1" parent="1">
          <mxGeometry x="600" y="710" width="40" height="30" as="geometry" />
        </mxCell>
        <mxCell id="dEsfGkpWCjNUA5EiApFV-154" value="1" style="text;html=1;align=right;verticalAlign=middle;whiteSpace=wrap;rounded=0;fontColor=#000000;" vertex="1" parent="1">
          <mxGeometry x="600" y="740" width="40" height="30" as="geometry" />
        </mxCell>
        <mxCell id="dEsfGkpWCjNUA5EiApFV-155" value="2" style="text;html=1;align=right;verticalAlign=middle;whiteSpace=wrap;rounded=0;fontColor=#000000;" vertex="1" parent="1">
          <mxGeometry x="600" y="770" width="40" height="30" as="geometry" />
        </mxCell>
        <mxCell id="dEsfGkpWCjNUA5EiApFV-156" value="???" style="rounded=0;whiteSpace=wrap;html=1;" vertex="1" parent="1">
          <mxGeometry x="640" y="800" width="70" height="30" as="geometry" />
        </mxCell>
        <mxCell id="dEsfGkpWCjNUA5EiApFV-157" value="3" style="text;html=1;align=right;verticalAlign=middle;whiteSpace=wrap;rounded=0;fontColor=#000000;" vertex="1" parent="1">
          <mxGeometry x="600" y="800" width="40" height="30" as="geometry" />
        </mxCell>
        <mxCell id="dEsfGkpWCjNUA5EiApFV-161" value="???" style="rounded=0;whiteSpace=wrap;html=1;" vertex="1" parent="1">
          <mxGeometry x="640" y="830" width="70" height="30" as="geometry" />
        </mxCell>
        <mxCell id="dEsfGkpWCjNUA5EiApFV-162" value="4" style="text;html=1;align=right;verticalAlign=middle;whiteSpace=wrap;rounded=0;fontColor=#000000;" vertex="1" parent="1">
          <mxGeometry x="600" y="830" width="40" height="30" as="geometry" />
        </mxCell>
        <mxCell id="dEsfGkpWCjNUA5EiApFV-163" value="???" style="rounded=0;whiteSpace=wrap;html=1;" vertex="1" parent="1">
          <mxGeometry x="640" y="860" width="70" height="30" as="geometry" />
        </mxCell>
        <mxCell id="dEsfGkpWCjNUA5EiApFV-164" value="5" style="text;html=1;align=right;verticalAlign=middle;whiteSpace=wrap;rounded=0;fontColor=#000000;" vertex="1" parent="1">
          <mxGeometry x="600" y="860" width="40" height="30" as="geometry" />
        </mxCell>
        <mxCell id="dEsfGkpWCjNUA5EiApFV-165" value="" style="curved=1;endArrow=classic;html=1;rounded=0;exitX=1;exitY=0.5;exitDx=0;exitDy=0;entryX=1;entryY=0;entryDx=0;entryDy=0;" edge="1" parent="1" source="dEsfGkpWCjNUA5EiApFV-147" target="dEsfGkpWCjNUA5EiApFV-153">
          <mxGeometry width="50" height="50" relative="1" as="geometry">
            <mxPoint x="265" y="865" as="sourcePoint" />
            <mxPoint x="490" y="740" as="targetPoint" />
            <Array as="points">
              <mxPoint x="420" y="900" />
              <mxPoint x="590" y="870" />
              <mxPoint x="590" y="710" />
            </Array>
          </mxGeometry>
        </mxCell>
        <mxCell id="dEsfGkpWCjNUA5EiApFV-166" value="Heap" style="rounded=0;whiteSpace=wrap;html=1;dashed=1;verticalAlign=top;fontStyle=1;fillColor=#d5e8d4;strokeColor=#82b366;fontColor=#000000;" vertex="1" parent="1">
          <mxGeometry x="380" y="960" width="370" height="280" as="geometry" />
        </mxCell>
        <mxCell id="dEsfGkpWCjNUA5EiApFV-167" value="Stack" style="rounded=0;whiteSpace=wrap;html=1;dashed=1;verticalAlign=top;fontStyle=1;fillColor=#fff2cc;strokeColor=#d6b656;fontColor=#000000;" vertex="1" parent="1">
          <mxGeometry x="40" y="960" width="280" height="280" as="geometry" />
        </mxCell>
        <mxCell id="dEsfGkpWCjNUA5EiApFV-168" value="10" style="rounded=0;whiteSpace=wrap;html=1;" vertex="1" parent="1">
          <mxGeometry x="480" y="1030" width="70" height="30" as="geometry" />
        </mxCell>
        <mxCell id="dEsfGkpWCjNUA5EiApFV-169" value="0x6FF0" style="text;html=1;align=center;verticalAlign=middle;whiteSpace=wrap;rounded=0;fontColor=#000000;" vertex="1" parent="1">
          <mxGeometry x="485" y="1010" width="60" height="20" as="geometry" />
        </mxCell>
        <mxCell id="dEsfGkpWCjNUA5EiApFV-170" value="20" style="rounded=0;whiteSpace=wrap;html=1;" vertex="1" parent="1">
          <mxGeometry x="480" y="1060" width="70" height="30" as="geometry" />
        </mxCell>
        <mxCell id="dEsfGkpWCjNUA5EiApFV-171" value="30" style="rounded=0;whiteSpace=wrap;html=1;" vertex="1" parent="1">
          <mxGeometry x="480" y="1090" width="70" height="30" as="geometry" />
        </mxCell>
        <mxCell id="dEsfGkpWCjNUA5EiApFV-172" value="0" style="text;html=1;align=right;verticalAlign=middle;whiteSpace=wrap;rounded=0;fontColor=#000000;" vertex="1" parent="1">
          <mxGeometry x="440" y="1030" width="40" height="30" as="geometry" />
        </mxCell>
        <mxCell id="dEsfGkpWCjNUA5EiApFV-173" value="1" style="text;html=1;align=right;verticalAlign=middle;whiteSpace=wrap;rounded=0;fontColor=#000000;" vertex="1" parent="1">
          <mxGeometry x="440" y="1060" width="40" height="30" as="geometry" />
        </mxCell>
        <mxCell id="dEsfGkpWCjNUA5EiApFV-174" value="2" style="text;html=1;align=right;verticalAlign=middle;whiteSpace=wrap;rounded=0;fontColor=#000000;" vertex="1" parent="1">
          <mxGeometry x="440" y="1090" width="40" height="30" as="geometry" />
        </mxCell>
        <mxCell id="dEsfGkpWCjNUA5EiApFV-175" value="" style="group" vertex="1" connectable="0" parent="1">
          <mxGeometry x="55" y="990" width="250" height="40" as="geometry" />
        </mxCell>
        <mxCell id="dEsfGkpWCjNUA5EiApFV-176" value="..." style="rounded=0;whiteSpace=wrap;html=1;" vertex="1" parent="dEsfGkpWCjNUA5EiApFV-175">
          <mxGeometry width="250" height="40" as="geometry" />
        </mxCell>
        <mxCell id="dEsfGkpWCjNUA5EiApFV-177" value="&lt;i&gt;main stack frame&lt;/i&gt;" style="text;html=1;strokeColor=none;fillColor=none;align=left;verticalAlign=middle;whiteSpace=wrap;rounded=0;" vertex="1" parent="dEsfGkpWCjNUA5EiApFV-175">
          <mxGeometry width="190" height="20" as="geometry" />
        </mxCell>
        <mxCell id="dEsfGkpWCjNUA5EiApFV-178" value="" style="rounded=0;whiteSpace=wrap;html=1;" vertex="1" parent="1">
          <mxGeometry x="55" y="1030" width="250" height="200" as="geometry" />
        </mxCell>
        <mxCell id="dEsfGkpWCjNUA5EiApFV-179" value="&lt;i&gt;grow stack frame&lt;/i&gt;" style="text;html=1;strokeColor=none;fillColor=none;align=left;verticalAlign=middle;whiteSpace=wrap;rounded=0;" vertex="1" parent="1">
          <mxGeometry x="55" y="1030" width="190" height="20" as="geometry" />
        </mxCell>
        <mxCell id="dEsfGkpWCjNUA5EiApFV-180" value="this" style="text;html=1;strokeColor=none;fillColor=none;align=center;verticalAlign=middle;whiteSpace=wrap;rounded=0;" vertex="1" parent="1">
          <mxGeometry x="65" y="1070" width="60" height="20" as="geometry" />
        </mxCell>
        <mxCell id="dEsfGkpWCjNUA5EiApFV-182" value="" style="rounded=0;whiteSpace=wrap;html=1;" vertex="1" parent="1">
          <mxGeometry x="115" y="1070" width="150" height="110" as="geometry" />
        </mxCell>
        <mxCell id="dEsfGkpWCjNUA5EiApFV-183" value="" style="group" vertex="1" connectable="0" parent="1">
          <mxGeometry x="145" y="1110" width="110" height="30" as="geometry" />
        </mxCell>
        <mxCell id="dEsfGkpWCjNUA5EiApFV-184" value="6" style="rounded=0;whiteSpace=wrap;html=1;" vertex="1" parent="dEsfGkpWCjNUA5EiApFV-183">
          <mxGeometry x="40" width="70" height="30" as="geometry" />
        </mxCell>
        <mxCell id="dEsfGkpWCjNUA5EiApFV-185" value="m_capacity" style="text;html=1;strokeColor=none;fillColor=none;align=right;verticalAlign=middle;whiteSpace=wrap;rounded=0;" vertex="1" parent="dEsfGkpWCjNUA5EiApFV-183">
          <mxGeometry x="-20" y="5" width="60" height="20" as="geometry" />
        </mxCell>
        <mxCell id="dEsfGkpWCjNUA5EiApFV-186" value="" style="group" vertex="1" connectable="0" parent="1">
          <mxGeometry x="145" y="1140" width="110" height="30" as="geometry" />
        </mxCell>
        <mxCell id="dEsfGkpWCjNUA5EiApFV-187" value="0x6FF0" style="rounded=0;whiteSpace=wrap;html=1;" vertex="1" parent="dEsfGkpWCjNUA5EiApFV-186">
          <mxGeometry x="40" width="70" height="30" as="geometry" />
        </mxCell>
        <mxCell id="dEsfGkpWCjNUA5EiApFV-188" value="m_arr" style="text;html=1;strokeColor=none;fillColor=none;align=center;verticalAlign=middle;whiteSpace=wrap;rounded=0;" vertex="1" parent="dEsfGkpWCjNUA5EiApFV-186">
          <mxGeometry x="-20" y="5" width="60" height="20" as="geometry" />
        </mxCell>
        <mxCell id="dEsfGkpWCjNUA5EiApFV-189" value="" style="group" vertex="1" connectable="0" parent="1">
          <mxGeometry x="145" y="1080" width="110" height="30" as="geometry" />
        </mxCell>
        <mxCell id="dEsfGkpWCjNUA5EiApFV-190" value="3" style="rounded=0;whiteSpace=wrap;html=1;" vertex="1" parent="dEsfGkpWCjNUA5EiApFV-189">
          <mxGeometry x="40" width="70" height="30" as="geometry" />
        </mxCell>
        <mxCell id="dEsfGkpWCjNUA5EiApFV-191" value="m_size" style="text;html=1;strokeColor=none;fillColor=none;align=right;verticalAlign=middle;whiteSpace=wrap;rounded=0;" vertex="1" parent="dEsfGkpWCjNUA5EiApFV-189">
          <mxGeometry x="-20" y="5" width="60" height="20" as="geometry" />
        </mxCell>
        <mxCell id="dEsfGkpWCjNUA5EiApFV-192" value="" style="group" vertex="1" connectable="0" parent="1">
          <mxGeometry x="75" y="1189" width="110" height="30" as="geometry" />
        </mxCell>
        <mxCell id="dEsfGkpWCjNUA5EiApFV-193" value="0x4080" style="rounded=0;whiteSpace=wrap;html=1;" vertex="1" parent="dEsfGkpWCjNUA5EiApFV-192">
          <mxGeometry x="40" width="70" height="30" as="geometry" />
        </mxCell>
        <mxCell id="dEsfGkpWCjNUA5EiApFV-194" value="newArr&amp;nbsp;" style="text;html=1;strokeColor=none;fillColor=none;align=right;verticalAlign=middle;whiteSpace=wrap;rounded=0;" vertex="1" parent="dEsfGkpWCjNUA5EiApFV-192">
          <mxGeometry x="-20" y="5" width="60" height="20" as="geometry" />
        </mxCell>
        <mxCell id="dEsfGkpWCjNUA5EiApFV-195" value="10" style="rounded=0;whiteSpace=wrap;html=1;fillColor=#dae8fc;strokeColor=#6c8ebf;" vertex="1" parent="1">
          <mxGeometry x="640" y="1010" width="70" height="30" as="geometry" />
        </mxCell>
        <mxCell id="dEsfGkpWCjNUA5EiApFV-196" value="0x04080" style="text;html=1;align=center;verticalAlign=middle;whiteSpace=wrap;rounded=0;fontColor=#000000;" vertex="1" parent="1">
          <mxGeometry x="645" y="990" width="60" height="20" as="geometry" />
        </mxCell>
        <mxCell id="dEsfGkpWCjNUA5EiApFV-197" value="20" style="rounded=0;whiteSpace=wrap;html=1;fillColor=#dae8fc;strokeColor=#6c8ebf;" vertex="1" parent="1">
          <mxGeometry x="640" y="1040" width="70" height="30" as="geometry" />
        </mxCell>
        <mxCell id="dEsfGkpWCjNUA5EiApFV-198" value="30" style="rounded=0;whiteSpace=wrap;html=1;fillColor=#dae8fc;strokeColor=#6c8ebf;" vertex="1" parent="1">
          <mxGeometry x="640" y="1070" width="70" height="30" as="geometry" />
        </mxCell>
        <mxCell id="dEsfGkpWCjNUA5EiApFV-199" value="0" style="text;html=1;align=right;verticalAlign=middle;whiteSpace=wrap;rounded=0;fontColor=#000000;" vertex="1" parent="1">
          <mxGeometry x="600" y="1010" width="40" height="30" as="geometry" />
        </mxCell>
        <mxCell id="dEsfGkpWCjNUA5EiApFV-200" value="1" style="text;html=1;align=right;verticalAlign=middle;whiteSpace=wrap;rounded=0;fontColor=#000000;" vertex="1" parent="1">
          <mxGeometry x="600" y="1040" width="40" height="30" as="geometry" />
        </mxCell>
        <mxCell id="dEsfGkpWCjNUA5EiApFV-201" value="2" style="text;html=1;align=right;verticalAlign=middle;whiteSpace=wrap;rounded=0;fontColor=#000000;" vertex="1" parent="1">
          <mxGeometry x="600" y="1070" width="40" height="30" as="geometry" />
        </mxCell>
        <mxCell id="dEsfGkpWCjNUA5EiApFV-202" value="???" style="rounded=0;whiteSpace=wrap;html=1;" vertex="1" parent="1">
          <mxGeometry x="640" y="1100" width="70" height="30" as="geometry" />
        </mxCell>
        <mxCell id="dEsfGkpWCjNUA5EiApFV-203" value="3" style="text;html=1;align=right;verticalAlign=middle;whiteSpace=wrap;rounded=0;fontColor=#000000;" vertex="1" parent="1">
          <mxGeometry x="600" y="1100" width="40" height="30" as="geometry" />
        </mxCell>
        <mxCell id="dEsfGkpWCjNUA5EiApFV-204" value="???" style="rounded=0;whiteSpace=wrap;html=1;" vertex="1" parent="1">
          <mxGeometry x="640" y="1130" width="70" height="30" as="geometry" />
        </mxCell>
        <mxCell id="dEsfGkpWCjNUA5EiApFV-205" value="4" style="text;html=1;align=right;verticalAlign=middle;whiteSpace=wrap;rounded=0;fontColor=#000000;" vertex="1" parent="1">
          <mxGeometry x="600" y="1130" width="40" height="30" as="geometry" />
        </mxCell>
        <mxCell id="dEsfGkpWCjNUA5EiApFV-206" value="???" style="rounded=0;whiteSpace=wrap;html=1;" vertex="1" parent="1">
          <mxGeometry x="640" y="1160" width="70" height="30" as="geometry" />
        </mxCell>
        <mxCell id="dEsfGkpWCjNUA5EiApFV-207" value="5" style="text;html=1;align=right;verticalAlign=middle;whiteSpace=wrap;rounded=0;fontColor=#000000;" vertex="1" parent="1">
          <mxGeometry x="600" y="1160" width="40" height="30" as="geometry" />
        </mxCell>
        <mxCell id="dEsfGkpWCjNUA5EiApFV-208" value="" style="curved=1;endArrow=classic;html=1;rounded=0;exitX=1;exitY=0.5;exitDx=0;exitDy=0;entryX=1;entryY=0;entryDx=0;entryDy=0;" edge="1" parent="1" source="dEsfGkpWCjNUA5EiApFV-193" target="dEsfGkpWCjNUA5EiApFV-199">
          <mxGeometry width="50" height="50" relative="1" as="geometry">
            <mxPoint x="265" y="1165" as="sourcePoint" />
            <mxPoint x="490" y="1040" as="targetPoint" />
            <Array as="points">
              <mxPoint x="420" y="1200" />
              <mxPoint x="590" y="1170" />
              <mxPoint x="590" y="1010" />
            </Array>
          </mxGeometry>
        </mxCell>
        <mxCell id="dEsfGkpWCjNUA5EiApFV-209" value="Heap" style="rounded=0;whiteSpace=wrap;html=1;dashed=1;verticalAlign=top;fontStyle=1;fillColor=#d5e8d4;strokeColor=#82b366;fontColor=#000000;" vertex="1" parent="1">
          <mxGeometry x="380" y="1270" width="370" height="280" as="geometry" />
        </mxCell>
        <mxCell id="dEsfGkpWCjNUA5EiApFV-210" value="Stack" style="rounded=0;whiteSpace=wrap;html=1;dashed=1;verticalAlign=top;fontStyle=1;fillColor=#fff2cc;strokeColor=#d6b656;fontColor=#000000;" vertex="1" parent="1">
          <mxGeometry x="40" y="1270" width="280" height="280" as="geometry" />
        </mxCell>
        <mxCell id="dEsfGkpWCjNUA5EiApFV-218" value="" style="group" vertex="1" connectable="0" parent="1">
          <mxGeometry x="55" y="1300" width="250" height="40" as="geometry" />
        </mxCell>
        <mxCell id="dEsfGkpWCjNUA5EiApFV-219" value="..." style="rounded=0;whiteSpace=wrap;html=1;" vertex="1" parent="dEsfGkpWCjNUA5EiApFV-218">
          <mxGeometry width="250" height="40" as="geometry" />
        </mxCell>
        <mxCell id="dEsfGkpWCjNUA5EiApFV-220" value="&lt;i&gt;main stack frame&lt;/i&gt;" style="text;html=1;strokeColor=none;fillColor=none;align=left;verticalAlign=middle;whiteSpace=wrap;rounded=0;" vertex="1" parent="dEsfGkpWCjNUA5EiApFV-218">
          <mxGeometry width="190" height="20" as="geometry" />
        </mxCell>
        <mxCell id="dEsfGkpWCjNUA5EiApFV-221" value="" style="rounded=0;whiteSpace=wrap;html=1;" vertex="1" parent="1">
          <mxGeometry x="55" y="1340" width="250" height="200" as="geometry" />
        </mxCell>
        <mxCell id="dEsfGkpWCjNUA5EiApFV-222" value="&lt;i&gt;grow stack frame&lt;/i&gt;" style="text;html=1;strokeColor=none;fillColor=none;align=left;verticalAlign=middle;whiteSpace=wrap;rounded=0;" vertex="1" parent="1">
          <mxGeometry x="55" y="1340" width="190" height="20" as="geometry" />
        </mxCell>
        <mxCell id="dEsfGkpWCjNUA5EiApFV-223" value="this" style="text;html=1;strokeColor=none;fillColor=none;align=center;verticalAlign=middle;whiteSpace=wrap;rounded=0;" vertex="1" parent="1">
          <mxGeometry x="65" y="1380" width="60" height="20" as="geometry" />
        </mxCell>
        <mxCell id="dEsfGkpWCjNUA5EiApFV-225" value="" style="rounded=0;whiteSpace=wrap;html=1;" vertex="1" parent="1">
          <mxGeometry x="115" y="1380" width="150" height="110" as="geometry" />
        </mxCell>
        <mxCell id="dEsfGkpWCjNUA5EiApFV-226" value="" style="group" vertex="1" connectable="0" parent="1">
          <mxGeometry x="145" y="1420" width="110" height="30" as="geometry" />
        </mxCell>
        <mxCell id="dEsfGkpWCjNUA5EiApFV-227" value="6" style="rounded=0;whiteSpace=wrap;html=1;" vertex="1" parent="dEsfGkpWCjNUA5EiApFV-226">
          <mxGeometry x="40" width="70" height="30" as="geometry" />
        </mxCell>
        <mxCell id="dEsfGkpWCjNUA5EiApFV-228" value="m_capacity" style="text;html=1;strokeColor=none;fillColor=none;align=right;verticalAlign=middle;whiteSpace=wrap;rounded=0;" vertex="1" parent="dEsfGkpWCjNUA5EiApFV-226">
          <mxGeometry x="-20" y="5" width="60" height="20" as="geometry" />
        </mxCell>
        <mxCell id="dEsfGkpWCjNUA5EiApFV-229" value="" style="group" vertex="1" connectable="0" parent="1">
          <mxGeometry x="145" y="1450" width="110" height="30" as="geometry" />
        </mxCell>
        <mxCell id="dEsfGkpWCjNUA5EiApFV-230" value="0x6FF0" style="rounded=0;whiteSpace=wrap;html=1;" vertex="1" parent="dEsfGkpWCjNUA5EiApFV-229">
          <mxGeometry x="40" width="70" height="30" as="geometry" />
        </mxCell>
        <mxCell id="dEsfGkpWCjNUA5EiApFV-231" value="m_arr" style="text;html=1;strokeColor=none;fillColor=none;align=center;verticalAlign=middle;whiteSpace=wrap;rounded=0;" vertex="1" parent="dEsfGkpWCjNUA5EiApFV-229">
          <mxGeometry x="-20" y="5" width="60" height="20" as="geometry" />
        </mxCell>
        <mxCell id="dEsfGkpWCjNUA5EiApFV-232" value="" style="group" vertex="1" connectable="0" parent="1">
          <mxGeometry x="145" y="1390" width="110" height="30" as="geometry" />
        </mxCell>
        <mxCell id="dEsfGkpWCjNUA5EiApFV-233" value="3" style="rounded=0;whiteSpace=wrap;html=1;" vertex="1" parent="dEsfGkpWCjNUA5EiApFV-232">
          <mxGeometry x="40" width="70" height="30" as="geometry" />
        </mxCell>
        <mxCell id="dEsfGkpWCjNUA5EiApFV-234" value="m_size" style="text;html=1;strokeColor=none;fillColor=none;align=right;verticalAlign=middle;whiteSpace=wrap;rounded=0;" vertex="1" parent="dEsfGkpWCjNUA5EiApFV-232">
          <mxGeometry x="-20" y="5" width="60" height="20" as="geometry" />
        </mxCell>
        <mxCell id="dEsfGkpWCjNUA5EiApFV-235" value="" style="group" vertex="1" connectable="0" parent="1">
          <mxGeometry x="75" y="1499" width="110" height="30" as="geometry" />
        </mxCell>
        <mxCell id="dEsfGkpWCjNUA5EiApFV-236" value="0x4080" style="rounded=0;whiteSpace=wrap;html=1;" vertex="1" parent="dEsfGkpWCjNUA5EiApFV-235">
          <mxGeometry x="40" width="70" height="30" as="geometry" />
        </mxCell>
        <mxCell id="dEsfGkpWCjNUA5EiApFV-237" value="newArr&amp;nbsp;" style="text;html=1;strokeColor=none;fillColor=none;align=right;verticalAlign=middle;whiteSpace=wrap;rounded=0;" vertex="1" parent="dEsfGkpWCjNUA5EiApFV-235">
          <mxGeometry x="-20" y="5" width="60" height="20" as="geometry" />
        </mxCell>
        <mxCell id="dEsfGkpWCjNUA5EiApFV-238" value="10" style="rounded=0;whiteSpace=wrap;html=1;" vertex="1" parent="1">
          <mxGeometry x="640" y="1320" width="70" height="30" as="geometry" />
        </mxCell>
        <mxCell id="dEsfGkpWCjNUA5EiApFV-239" value="0x04080" style="text;html=1;align=center;verticalAlign=middle;whiteSpace=wrap;rounded=0;" vertex="1" parent="1">
          <mxGeometry x="645" y="1300" width="60" height="20" as="geometry" />
        </mxCell>
        <mxCell id="dEsfGkpWCjNUA5EiApFV-240" value="20" style="rounded=0;whiteSpace=wrap;html=1;" vertex="1" parent="1">
          <mxGeometry x="640" y="1350" width="70" height="30" as="geometry" />
        </mxCell>
        <mxCell id="dEsfGkpWCjNUA5EiApFV-241" value="30" style="rounded=0;whiteSpace=wrap;html=1;" vertex="1" parent="1">
          <mxGeometry x="640" y="1380" width="70" height="30" as="geometry" />
        </mxCell>
        <mxCell id="dEsfGkpWCjNUA5EiApFV-242" value="0" style="text;html=1;align=right;verticalAlign=middle;whiteSpace=wrap;rounded=0;fontColor=#000000;" vertex="1" parent="1">
          <mxGeometry x="600" y="1320" width="40" height="30" as="geometry" />
        </mxCell>
        <mxCell id="dEsfGkpWCjNUA5EiApFV-243" value="1" style="text;html=1;align=right;verticalAlign=middle;whiteSpace=wrap;rounded=0;fontColor=#000000;" vertex="1" parent="1">
          <mxGeometry x="600" y="1350" width="40" height="30" as="geometry" />
        </mxCell>
        <mxCell id="dEsfGkpWCjNUA5EiApFV-244" value="2" style="text;html=1;align=right;verticalAlign=middle;whiteSpace=wrap;rounded=0;fontColor=#000000;" vertex="1" parent="1">
          <mxGeometry x="600" y="1380" width="40" height="30" as="geometry" />
        </mxCell>
        <mxCell id="dEsfGkpWCjNUA5EiApFV-245" value="???" style="rounded=0;whiteSpace=wrap;html=1;" vertex="1" parent="1">
          <mxGeometry x="640" y="1410" width="70" height="30" as="geometry" />
        </mxCell>
        <mxCell id="dEsfGkpWCjNUA5EiApFV-246" value="3" style="text;html=1;align=right;verticalAlign=middle;whiteSpace=wrap;rounded=0;fontColor=#000000;" vertex="1" parent="1">
          <mxGeometry x="600" y="1410" width="40" height="30" as="geometry" />
        </mxCell>
        <mxCell id="dEsfGkpWCjNUA5EiApFV-247" value="???" style="rounded=0;whiteSpace=wrap;html=1;" vertex="1" parent="1">
          <mxGeometry x="640" y="1440" width="70" height="30" as="geometry" />
        </mxCell>
        <mxCell id="dEsfGkpWCjNUA5EiApFV-248" value="4" style="text;html=1;align=right;verticalAlign=middle;whiteSpace=wrap;rounded=0;fontColor=#000000;" vertex="1" parent="1">
          <mxGeometry x="600" y="1440" width="40" height="30" as="geometry" />
        </mxCell>
        <mxCell id="dEsfGkpWCjNUA5EiApFV-249" value="???" style="rounded=0;whiteSpace=wrap;html=1;" vertex="1" parent="1">
          <mxGeometry x="640" y="1470" width="70" height="30" as="geometry" />
        </mxCell>
        <mxCell id="dEsfGkpWCjNUA5EiApFV-250" value="5" style="text;html=1;align=right;verticalAlign=middle;whiteSpace=wrap;rounded=0;fontColor=#000000;" vertex="1" parent="1">
          <mxGeometry x="600" y="1470" width="40" height="30" as="geometry" />
        </mxCell>
        <mxCell id="dEsfGkpWCjNUA5EiApFV-251" value="" style="curved=1;endArrow=classic;html=1;rounded=0;exitX=1;exitY=0.5;exitDx=0;exitDy=0;entryX=1;entryY=0;entryDx=0;entryDy=0;" edge="1" parent="1" source="dEsfGkpWCjNUA5EiApFV-236" target="dEsfGkpWCjNUA5EiApFV-242">
          <mxGeometry width="50" height="50" relative="1" as="geometry">
            <mxPoint x="265" y="1475" as="sourcePoint" />
            <mxPoint x="490" y="1350" as="targetPoint" />
            <Array as="points">
              <mxPoint x="420" y="1510" />
              <mxPoint x="590" y="1480" />
              <mxPoint x="590" y="1320" />
            </Array>
          </mxGeometry>
        </mxCell>
        <mxCell id="dEsfGkpWCjNUA5EiApFV-119" value="" style="curved=1;endArrow=classic;html=1;rounded=0;exitX=1;exitY=0.5;exitDx=0;exitDy=0;entryX=0;entryY=0;entryDx=0;entryDy=0;" edge="1" parent="1" source="dEsfGkpWCjNUA5EiApFV-114">
          <mxGeometry width="50" height="50" relative="1" as="geometry">
            <mxPoint x="260" y="465" as="sourcePoint" />
            <mxPoint x="480" y="420" as="targetPoint" />
            <Array as="points">
              <mxPoint x="350" y="470" />
              <mxPoint x="420" y="430" />
            </Array>
          </mxGeometry>
        </mxCell>
        <mxCell id="dEsfGkpWCjNUA5EiApFV-135" value="" style="curved=1;endArrow=classic;html=1;rounded=0;exitX=1;exitY=0.5;exitDx=0;exitDy=0;entryX=0;entryY=0;entryDx=0;entryDy=0;" edge="1" parent="1" source="dEsfGkpWCjNUA5EiApFV-141">
          <mxGeometry width="50" height="50" relative="1" as="geometry">
            <mxPoint x="260" y="775" as="sourcePoint" />
            <mxPoint x="480" y="730" as="targetPoint" />
            <Array as="points">
              <mxPoint x="350" y="780" />
              <mxPoint x="420" y="740" />
            </Array>
          </mxGeometry>
        </mxCell>
        <mxCell id="dEsfGkpWCjNUA5EiApFV-181" value="" style="curved=1;endArrow=classic;html=1;rounded=0;exitX=1;exitY=0.5;exitDx=0;exitDy=0;entryX=0;entryY=0;entryDx=0;entryDy=0;" edge="1" parent="1" source="dEsfGkpWCjNUA5EiApFV-187">
          <mxGeometry width="50" height="50" relative="1" as="geometry">
            <mxPoint x="260" y="1075" as="sourcePoint" />
            <mxPoint x="480" y="1030" as="targetPoint" />
            <Array as="points">
              <mxPoint x="350" y="1080" />
              <mxPoint x="420" y="1040" />
            </Array>
          </mxGeometry>
        </mxCell>
        <mxCell id="dEsfGkpWCjNUA5EiApFV-224" value="" style="curved=1;endArrow=classic;html=1;rounded=0;exitX=1;exitY=0.5;exitDx=0;exitDy=0;entryX=0;entryY=0;entryDx=0;entryDy=0;" edge="1" parent="1" source="dEsfGkpWCjNUA5EiApFV-230">
          <mxGeometry width="50" height="50" relative="1" as="geometry">
            <mxPoint x="260" y="1385" as="sourcePoint" />
            <mxPoint x="480" y="1340" as="targetPoint" />
            <Array as="points">
              <mxPoint x="350" y="1390" />
              <mxPoint x="420" y="1350" />
            </Array>
          </mxGeometry>
        </mxCell>
        <mxCell id="dEsfGkpWCjNUA5EiApFV-252" value="Heap" style="rounded=0;whiteSpace=wrap;html=1;dashed=1;verticalAlign=top;fontStyle=1;fillColor=#d5e8d4;strokeColor=#82b366;fontColor=#000000;" vertex="1" parent="1">
          <mxGeometry x="380" y="1590" width="370" height="280" as="geometry" />
        </mxCell>
        <mxCell id="dEsfGkpWCjNUA5EiApFV-253" value="Stack" style="rounded=0;whiteSpace=wrap;html=1;dashed=1;verticalAlign=top;fontStyle=1;fillColor=#fff2cc;strokeColor=#d6b656;fontColor=#000000;" vertex="1" parent="1">
          <mxGeometry x="40" y="1590" width="280" height="280" as="geometry" />
        </mxCell>
        <mxCell id="dEsfGkpWCjNUA5EiApFV-254" value="" style="group" vertex="1" connectable="0" parent="1">
          <mxGeometry x="55" y="1620" width="250" height="40" as="geometry" />
        </mxCell>
        <mxCell id="dEsfGkpWCjNUA5EiApFV-255" value="..." style="rounded=0;whiteSpace=wrap;html=1;" vertex="1" parent="dEsfGkpWCjNUA5EiApFV-254">
          <mxGeometry width="250" height="40" as="geometry" />
        </mxCell>
        <mxCell id="dEsfGkpWCjNUA5EiApFV-256" value="&lt;i&gt;main stack frame&lt;/i&gt;" style="text;html=1;strokeColor=none;fillColor=none;align=left;verticalAlign=middle;whiteSpace=wrap;rounded=0;" vertex="1" parent="dEsfGkpWCjNUA5EiApFV-254">
          <mxGeometry width="190" height="20" as="geometry" />
        </mxCell>
        <mxCell id="dEsfGkpWCjNUA5EiApFV-257" value="" style="rounded=0;whiteSpace=wrap;html=1;" vertex="1" parent="1">
          <mxGeometry x="55" y="1660" width="250" height="200" as="geometry" />
        </mxCell>
        <mxCell id="dEsfGkpWCjNUA5EiApFV-258" value="&lt;i&gt;grow stack frame&lt;/i&gt;" style="text;html=1;strokeColor=none;fillColor=none;align=left;verticalAlign=middle;whiteSpace=wrap;rounded=0;" vertex="1" parent="1">
          <mxGeometry x="55" y="1660" width="190" height="20" as="geometry" />
        </mxCell>
        <mxCell id="dEsfGkpWCjNUA5EiApFV-259" value="this" style="text;html=1;strokeColor=none;fillColor=none;align=center;verticalAlign=middle;whiteSpace=wrap;rounded=0;" vertex="1" parent="1">
          <mxGeometry x="65" y="1700" width="60" height="20" as="geometry" />
        </mxCell>
        <mxCell id="dEsfGkpWCjNUA5EiApFV-260" value="" style="rounded=0;whiteSpace=wrap;html=1;" vertex="1" parent="1">
          <mxGeometry x="115" y="1700" width="150" height="110" as="geometry" />
        </mxCell>
        <mxCell id="dEsfGkpWCjNUA5EiApFV-261" value="" style="group" vertex="1" connectable="0" parent="1">
          <mxGeometry x="145" y="1740" width="110" height="30" as="geometry" />
        </mxCell>
        <mxCell id="dEsfGkpWCjNUA5EiApFV-262" value="6" style="rounded=0;whiteSpace=wrap;html=1;" vertex="1" parent="dEsfGkpWCjNUA5EiApFV-261">
          <mxGeometry x="40" width="70" height="30" as="geometry" />
        </mxCell>
        <mxCell id="dEsfGkpWCjNUA5EiApFV-263" value="m_capacity" style="text;html=1;strokeColor=none;fillColor=none;align=right;verticalAlign=middle;whiteSpace=wrap;rounded=0;" vertex="1" parent="dEsfGkpWCjNUA5EiApFV-261">
          <mxGeometry x="-20" y="5" width="60" height="20" as="geometry" />
        </mxCell>
        <mxCell id="dEsfGkpWCjNUA5EiApFV-267" value="" style="group" vertex="1" connectable="0" parent="1">
          <mxGeometry x="145" y="1710" width="110" height="30" as="geometry" />
        </mxCell>
        <mxCell id="dEsfGkpWCjNUA5EiApFV-268" value="3" style="rounded=0;whiteSpace=wrap;html=1;" vertex="1" parent="dEsfGkpWCjNUA5EiApFV-267">
          <mxGeometry x="40" width="70" height="30" as="geometry" />
        </mxCell>
        <mxCell id="dEsfGkpWCjNUA5EiApFV-269" value="m_size" style="text;html=1;strokeColor=none;fillColor=none;align=right;verticalAlign=middle;whiteSpace=wrap;rounded=0;" vertex="1" parent="dEsfGkpWCjNUA5EiApFV-267">
          <mxGeometry x="-20" y="5" width="60" height="20" as="geometry" />
        </mxCell>
        <mxCell id="dEsfGkpWCjNUA5EiApFV-270" value="" style="group" vertex="1" connectable="0" parent="1">
          <mxGeometry x="75" y="1819" width="110" height="30" as="geometry" />
        </mxCell>
        <mxCell id="dEsfGkpWCjNUA5EiApFV-271" value="0x4080" style="rounded=0;whiteSpace=wrap;html=1;" vertex="1" parent="dEsfGkpWCjNUA5EiApFV-270">
          <mxGeometry x="40" width="70" height="30" as="geometry" />
        </mxCell>
        <mxCell id="dEsfGkpWCjNUA5EiApFV-272" value="newArr&amp;nbsp;" style="text;html=1;strokeColor=none;fillColor=none;align=right;verticalAlign=middle;whiteSpace=wrap;rounded=0;" vertex="1" parent="dEsfGkpWCjNUA5EiApFV-270">
          <mxGeometry x="-20" y="5" width="60" height="20" as="geometry" />
        </mxCell>
        <mxCell id="dEsfGkpWCjNUA5EiApFV-273" value="10" style="rounded=0;whiteSpace=wrap;html=1;" vertex="1" parent="1">
          <mxGeometry x="640" y="1640" width="70" height="30" as="geometry" />
        </mxCell>
        <mxCell id="dEsfGkpWCjNUA5EiApFV-274" value="0x04080" style="text;html=1;align=center;verticalAlign=middle;whiteSpace=wrap;rounded=0;" vertex="1" parent="1">
          <mxGeometry x="645" y="1620" width="60" height="20" as="geometry" />
        </mxCell>
        <mxCell id="dEsfGkpWCjNUA5EiApFV-275" value="20" style="rounded=0;whiteSpace=wrap;html=1;" vertex="1" parent="1">
          <mxGeometry x="640" y="1670" width="70" height="30" as="geometry" />
        </mxCell>
        <mxCell id="dEsfGkpWCjNUA5EiApFV-276" value="30" style="rounded=0;whiteSpace=wrap;html=1;" vertex="1" parent="1">
          <mxGeometry x="640" y="1700" width="70" height="30" as="geometry" />
        </mxCell>
        <mxCell id="dEsfGkpWCjNUA5EiApFV-277" value="0" style="text;html=1;align=right;verticalAlign=middle;whiteSpace=wrap;rounded=0;fontColor=#000000;" vertex="1" parent="1">
          <mxGeometry x="600" y="1640" width="40" height="30" as="geometry" />
        </mxCell>
        <mxCell id="dEsfGkpWCjNUA5EiApFV-278" value="1" style="text;html=1;align=right;verticalAlign=middle;whiteSpace=wrap;rounded=0;fontColor=#000000;" vertex="1" parent="1">
          <mxGeometry x="600" y="1670" width="40" height="30" as="geometry" />
        </mxCell>
        <mxCell id="dEsfGkpWCjNUA5EiApFV-279" value="2" style="text;html=1;align=right;verticalAlign=middle;whiteSpace=wrap;rounded=0;fontColor=#000000;" vertex="1" parent="1">
          <mxGeometry x="600" y="1700" width="40" height="30" as="geometry" />
        </mxCell>
        <mxCell id="dEsfGkpWCjNUA5EiApFV-280" value="???" style="rounded=0;whiteSpace=wrap;html=1;" vertex="1" parent="1">
          <mxGeometry x="640" y="1730" width="70" height="30" as="geometry" />
        </mxCell>
        <mxCell id="dEsfGkpWCjNUA5EiApFV-281" value="3" style="text;html=1;align=right;verticalAlign=middle;whiteSpace=wrap;rounded=0;fontColor=#000000;" vertex="1" parent="1">
          <mxGeometry x="600" y="1730" width="40" height="30" as="geometry" />
        </mxCell>
        <mxCell id="dEsfGkpWCjNUA5EiApFV-282" value="???" style="rounded=0;whiteSpace=wrap;html=1;" vertex="1" parent="1">
          <mxGeometry x="640" y="1760" width="70" height="30" as="geometry" />
        </mxCell>
        <mxCell id="dEsfGkpWCjNUA5EiApFV-283" value="4" style="text;html=1;align=right;verticalAlign=middle;whiteSpace=wrap;rounded=0;fontColor=#000000;" vertex="1" parent="1">
          <mxGeometry x="600" y="1760" width="40" height="30" as="geometry" />
        </mxCell>
        <mxCell id="dEsfGkpWCjNUA5EiApFV-284" value="???" style="rounded=0;whiteSpace=wrap;html=1;" vertex="1" parent="1">
          <mxGeometry x="640" y="1790" width="70" height="30" as="geometry" />
        </mxCell>
        <mxCell id="dEsfGkpWCjNUA5EiApFV-285" value="5" style="text;html=1;align=right;verticalAlign=middle;whiteSpace=wrap;rounded=0;fontColor=#000000;" vertex="1" parent="1">
          <mxGeometry x="600" y="1790" width="40" height="30" as="geometry" />
        </mxCell>
        <mxCell id="dEsfGkpWCjNUA5EiApFV-286" value="" style="curved=1;endArrow=classic;html=1;rounded=0;exitX=1;exitY=0.5;exitDx=0;exitDy=0;entryX=1;entryY=0;entryDx=0;entryDy=0;" edge="1" parent="1" source="dEsfGkpWCjNUA5EiApFV-271" target="dEsfGkpWCjNUA5EiApFV-277">
          <mxGeometry width="50" height="50" relative="1" as="geometry">
            <mxPoint x="265" y="1795" as="sourcePoint" />
            <mxPoint x="490" y="1670" as="targetPoint" />
            <Array as="points">
              <mxPoint x="420" y="1830" />
              <mxPoint x="590" y="1800" />
              <mxPoint x="590" y="1640" />
            </Array>
          </mxGeometry>
        </mxCell>
        <mxCell id="dEsfGkpWCjNUA5EiApFV-287" value="" style="curved=1;endArrow=classic;html=1;rounded=0;exitX=1;exitY=0.5;exitDx=0;exitDy=0;entryX=1;entryY=0;entryDx=0;entryDy=0;" edge="1" parent="1" source="dEsfGkpWCjNUA5EiApFV-265" target="dEsfGkpWCjNUA5EiApFV-277">
          <mxGeometry width="50" height="50" relative="1" as="geometry">
            <mxPoint x="260" y="1705" as="sourcePoint" />
            <mxPoint x="480" y="1660" as="targetPoint" />
            <Array as="points">
              <mxPoint x="350" y="1710" />
              <mxPoint x="420" y="1670" />
            </Array>
          </mxGeometry>
        </mxCell>
        <mxCell id="dEsfGkpWCjNUA5EiApFV-265" value="0x4080" style="rounded=0;whiteSpace=wrap;html=1;fillColor=#dae8fc;strokeColor=#6c8ebf;" vertex="1" parent="1">
          <mxGeometry x="185" y="1770" width="70" height="30" as="geometry" />
        </mxCell>
        <mxCell id="dEsfGkpWCjNUA5EiApFV-266" value="m_arr" style="text;html=1;strokeColor=none;fillColor=none;align=center;verticalAlign=middle;whiteSpace=wrap;rounded=0;" vertex="1" parent="1">
          <mxGeometry x="125" y="1775" width="60" height="20" as="geometry" />
        </mxCell>
        <mxCell id="dEsfGkpWCjNUA5EiApFV-288" value="Heap" style="rounded=0;whiteSpace=wrap;html=1;dashed=1;verticalAlign=top;fontStyle=1;fillColor=#d5e8d4;strokeColor=#82b366;fontColor=#000000;" vertex="1" parent="1">
          <mxGeometry x="380" y="1900" width="370" height="280" as="geometry" />
        </mxCell>
        <mxCell id="dEsfGkpWCjNUA5EiApFV-289" value="Stack" style="rounded=0;whiteSpace=wrap;html=1;dashed=1;verticalAlign=top;fontStyle=1;fillColor=#fff2cc;strokeColor=#d6b656;fontColor=#000000;" vertex="1" parent="1">
          <mxGeometry x="40" y="1900" width="280" height="280" as="geometry" />
        </mxCell>
        <mxCell id="dEsfGkpWCjNUA5EiApFV-290" value="" style="group" vertex="1" connectable="0" parent="1">
          <mxGeometry x="55" y="1930" width="250" height="40" as="geometry" />
        </mxCell>
        <mxCell id="dEsfGkpWCjNUA5EiApFV-291" value="..." style="rounded=0;whiteSpace=wrap;html=1;" vertex="1" parent="dEsfGkpWCjNUA5EiApFV-290">
          <mxGeometry width="250" height="40" as="geometry" />
        </mxCell>
        <mxCell id="dEsfGkpWCjNUA5EiApFV-292" value="&lt;i&gt;main stack frame&lt;/i&gt;" style="text;html=1;strokeColor=none;fillColor=none;align=left;verticalAlign=middle;whiteSpace=wrap;rounded=0;" vertex="1" parent="dEsfGkpWCjNUA5EiApFV-290">
          <mxGeometry width="190" height="20" as="geometry" />
        </mxCell>
        <mxCell id="dEsfGkpWCjNUA5EiApFV-293" value="" style="rounded=0;whiteSpace=wrap;html=1;" vertex="1" parent="1">
          <mxGeometry x="55" y="1970" width="250" height="200" as="geometry" />
        </mxCell>
        <mxCell id="dEsfGkpWCjNUA5EiApFV-294" value="&lt;i&gt;grow stack frame&lt;/i&gt;" style="text;html=1;strokeColor=none;fillColor=none;align=left;verticalAlign=middle;whiteSpace=wrap;rounded=0;" vertex="1" parent="1">
          <mxGeometry x="55" y="1970" width="190" height="20" as="geometry" />
        </mxCell>
        <mxCell id="dEsfGkpWCjNUA5EiApFV-295" value="this" style="text;html=1;strokeColor=none;fillColor=none;align=center;verticalAlign=middle;whiteSpace=wrap;rounded=0;" vertex="1" parent="1">
          <mxGeometry x="65" y="2010" width="60" height="20" as="geometry" />
        </mxCell>
        <mxCell id="dEsfGkpWCjNUA5EiApFV-296" value="" style="rounded=0;whiteSpace=wrap;html=1;" vertex="1" parent="1">
          <mxGeometry x="115" y="2010" width="150" height="110" as="geometry" />
        </mxCell>
        <mxCell id="dEsfGkpWCjNUA5EiApFV-297" value="" style="group" vertex="1" connectable="0" parent="1">
          <mxGeometry x="145" y="2050" width="110" height="30" as="geometry" />
        </mxCell>
        <mxCell id="dEsfGkpWCjNUA5EiApFV-298" value="6" style="rounded=0;whiteSpace=wrap;html=1;" vertex="1" parent="dEsfGkpWCjNUA5EiApFV-297">
          <mxGeometry x="40" width="70" height="30" as="geometry" />
        </mxCell>
        <mxCell id="dEsfGkpWCjNUA5EiApFV-299" value="m_capacity" style="text;html=1;strokeColor=none;fillColor=none;align=right;verticalAlign=middle;whiteSpace=wrap;rounded=0;" vertex="1" parent="dEsfGkpWCjNUA5EiApFV-297">
          <mxGeometry x="-20" y="5" width="60" height="20" as="geometry" />
        </mxCell>
        <mxCell id="dEsfGkpWCjNUA5EiApFV-300" value="" style="group" vertex="1" connectable="0" parent="1">
          <mxGeometry x="145" y="2020" width="110" height="30" as="geometry" />
        </mxCell>
        <mxCell id="dEsfGkpWCjNUA5EiApFV-301" value="3" style="rounded=0;whiteSpace=wrap;html=1;" vertex="1" parent="dEsfGkpWCjNUA5EiApFV-300">
          <mxGeometry x="40" width="70" height="30" as="geometry" />
        </mxCell>
        <mxCell id="dEsfGkpWCjNUA5EiApFV-302" value="m_size" style="text;html=1;strokeColor=none;fillColor=none;align=right;verticalAlign=middle;whiteSpace=wrap;rounded=0;" vertex="1" parent="dEsfGkpWCjNUA5EiApFV-300">
          <mxGeometry x="-20" y="5" width="60" height="20" as="geometry" />
        </mxCell>
        <mxCell id="dEsfGkpWCjNUA5EiApFV-306" value="10" style="rounded=0;whiteSpace=wrap;html=1;" vertex="1" parent="1">
          <mxGeometry x="640" y="1950" width="70" height="30" as="geometry" />
        </mxCell>
        <mxCell id="dEsfGkpWCjNUA5EiApFV-307" value="0x04080" style="text;html=1;align=center;verticalAlign=middle;whiteSpace=wrap;rounded=0;" vertex="1" parent="1">
          <mxGeometry x="645" y="1930" width="60" height="20" as="geometry" />
        </mxCell>
        <mxCell id="dEsfGkpWCjNUA5EiApFV-308" value="20" style="rounded=0;whiteSpace=wrap;html=1;" vertex="1" parent="1">
          <mxGeometry x="640" y="1980" width="70" height="30" as="geometry" />
        </mxCell>
        <mxCell id="dEsfGkpWCjNUA5EiApFV-309" value="30" style="rounded=0;whiteSpace=wrap;html=1;" vertex="1" parent="1">
          <mxGeometry x="640" y="2010" width="70" height="30" as="geometry" />
        </mxCell>
        <mxCell id="dEsfGkpWCjNUA5EiApFV-310" value="0" style="text;html=1;align=right;verticalAlign=middle;whiteSpace=wrap;rounded=0;fontColor=#000000;" vertex="1" parent="1">
          <mxGeometry x="600" y="1950" width="40" height="30" as="geometry" />
        </mxCell>
        <mxCell id="dEsfGkpWCjNUA5EiApFV-311" value="1" style="text;html=1;align=right;verticalAlign=middle;whiteSpace=wrap;rounded=0;fontColor=#000000;" vertex="1" parent="1">
          <mxGeometry x="600" y="1980" width="40" height="30" as="geometry" />
        </mxCell>
        <mxCell id="dEsfGkpWCjNUA5EiApFV-312" value="2" style="text;html=1;align=right;verticalAlign=middle;whiteSpace=wrap;rounded=0;fontColor=#000000;" vertex="1" parent="1">
          <mxGeometry x="600" y="2010" width="40" height="30" as="geometry" />
        </mxCell>
        <mxCell id="dEsfGkpWCjNUA5EiApFV-313" value="???" style="rounded=0;whiteSpace=wrap;html=1;" vertex="1" parent="1">
          <mxGeometry x="640" y="2040" width="70" height="30" as="geometry" />
        </mxCell>
        <mxCell id="dEsfGkpWCjNUA5EiApFV-314" value="3" style="text;html=1;align=right;verticalAlign=middle;whiteSpace=wrap;rounded=0;fontColor=#000000;" vertex="1" parent="1">
          <mxGeometry x="600" y="2040" width="40" height="30" as="geometry" />
        </mxCell>
        <mxCell id="dEsfGkpWCjNUA5EiApFV-315" value="???" style="rounded=0;whiteSpace=wrap;html=1;" vertex="1" parent="1">
          <mxGeometry x="640" y="2070" width="70" height="30" as="geometry" />
        </mxCell>
        <mxCell id="dEsfGkpWCjNUA5EiApFV-316" value="4" style="text;html=1;align=right;verticalAlign=middle;whiteSpace=wrap;rounded=0;fontColor=#000000;" vertex="1" parent="1">
          <mxGeometry x="600" y="2070" width="40" height="30" as="geometry" />
        </mxCell>
        <mxCell id="dEsfGkpWCjNUA5EiApFV-317" value="???" style="rounded=0;whiteSpace=wrap;html=1;" vertex="1" parent="1">
          <mxGeometry x="640" y="2100" width="70" height="30" as="geometry" />
        </mxCell>
        <mxCell id="dEsfGkpWCjNUA5EiApFV-318" value="5" style="text;html=1;align=right;verticalAlign=middle;whiteSpace=wrap;rounded=0;fontColor=#000000;" vertex="1" parent="1">
          <mxGeometry x="600" y="2100" width="40" height="30" as="geometry" />
        </mxCell>
        <mxCell id="dEsfGkpWCjNUA5EiApFV-320" value="" style="curved=1;endArrow=classic;html=1;rounded=0;exitX=1;exitY=0.5;exitDx=0;exitDy=0;entryX=1;entryY=0;entryDx=0;entryDy=0;" edge="1" parent="1" source="dEsfGkpWCjNUA5EiApFV-321" target="dEsfGkpWCjNUA5EiApFV-310">
          <mxGeometry width="50" height="50" relative="1" as="geometry">
            <mxPoint x="260" y="2015" as="sourcePoint" />
            <mxPoint x="480" y="1970" as="targetPoint" />
            <Array as="points">
              <mxPoint x="350" y="2020" />
              <mxPoint x="420" y="1980" />
            </Array>
          </mxGeometry>
        </mxCell>
        <mxCell id="dEsfGkpWCjNUA5EiApFV-321" value="0x4080" style="rounded=0;whiteSpace=wrap;html=1;" vertex="1" parent="1">
          <mxGeometry x="185" y="2080" width="70" height="30" as="geometry" />
        </mxCell>
        <mxCell id="dEsfGkpWCjNUA5EiApFV-322" value="m_arr" style="text;html=1;strokeColor=none;fillColor=none;align=center;verticalAlign=middle;whiteSpace=wrap;rounded=0;" vertex="1" parent="1">
          <mxGeometry x="125" y="2085" width="60" height="20" as="geometry" />
        </mxCell>
      </root>
    </mxGraphModel>
  </diagram>
  <diagram id="wKHLQzn58WdDVv6rqgBz" name="insert-at">
    <mxGraphModel dx="1078" dy="860" grid="1" gridSize="10" guides="1" tooltips="1" connect="1" arrows="1" fold="1" page="1" pageScale="1" pageWidth="850" pageHeight="1100" math="0" shadow="0">
      <root>
        <mxCell id="0" />
        <mxCell id="1" parent="0" />
        <mxCell id="LNpFDwtTGK5kS-6dNJRf-1" value="Heap" style="rounded=0;whiteSpace=wrap;html=1;dashed=1;verticalAlign=top;fontStyle=1;fillColor=#d5e8d4;strokeColor=#82b366;fontColor=#000000;" vertex="1" parent="1">
          <mxGeometry x="380" y="40" width="370" height="320" as="geometry" />
        </mxCell>
        <mxCell id="LNpFDwtTGK5kS-6dNJRf-2" value="Stack" style="rounded=0;whiteSpace=wrap;html=1;dashed=1;verticalAlign=top;fontStyle=1;fillColor=#fff2cc;strokeColor=#d6b656;fontColor=#000000;" vertex="1" parent="1">
          <mxGeometry x="40" y="40" width="280" height="340" as="geometry" />
        </mxCell>
        <mxCell id="LNpFDwtTGK5kS-6dNJRf-3" value="10" style="rounded=0;whiteSpace=wrap;html=1;" vertex="1" parent="1">
          <mxGeometry x="480" y="110" width="70" height="30" as="geometry" />
        </mxCell>
        <mxCell id="LNpFDwtTGK5kS-6dNJRf-4" value="0x6FF0" style="text;html=1;align=center;verticalAlign=middle;whiteSpace=wrap;rounded=0;fontColor=#000000;" vertex="1" parent="1">
          <mxGeometry x="485" y="90" width="60" height="20" as="geometry" />
        </mxCell>
        <mxCell id="LNpFDwtTGK5kS-6dNJRf-5" value="20" style="rounded=0;whiteSpace=wrap;html=1;" vertex="1" parent="1">
          <mxGeometry x="480" y="140" width="70" height="30" as="geometry" />
        </mxCell>
        <mxCell id="LNpFDwtTGK5kS-6dNJRf-6" value="30" style="rounded=0;whiteSpace=wrap;html=1;" vertex="1" parent="1">
          <mxGeometry x="480" y="170" width="70" height="30" as="geometry" />
        </mxCell>
        <mxCell id="LNpFDwtTGK5kS-6dNJRf-7" value="0" style="text;html=1;align=right;verticalAlign=middle;whiteSpace=wrap;rounded=0;fontColor=#000000;" vertex="1" parent="1">
          <mxGeometry x="440" y="110" width="40" height="30" as="geometry" />
        </mxCell>
        <mxCell id="LNpFDwtTGK5kS-6dNJRf-8" value="1" style="text;html=1;align=right;verticalAlign=middle;whiteSpace=wrap;rounded=0;fontColor=#000000;" vertex="1" parent="1">
          <mxGeometry x="440" y="140" width="40" height="30" as="geometry" />
        </mxCell>
        <mxCell id="LNpFDwtTGK5kS-6dNJRf-9" value="2" style="text;html=1;align=right;verticalAlign=middle;whiteSpace=wrap;rounded=0;fontColor=#000000;" vertex="1" parent="1">
          <mxGeometry x="440" y="170" width="40" height="30" as="geometry" />
        </mxCell>
        <mxCell id="LNpFDwtTGK5kS-6dNJRf-10" value="" style="group" vertex="1" connectable="0" parent="1">
          <mxGeometry x="55" y="70" width="250" height="40" as="geometry" />
        </mxCell>
        <mxCell id="LNpFDwtTGK5kS-6dNJRf-11" value="..." style="rounded=0;whiteSpace=wrap;html=1;" vertex="1" parent="LNpFDwtTGK5kS-6dNJRf-10">
          <mxGeometry width="250" height="40" as="geometry" />
        </mxCell>
        <mxCell id="LNpFDwtTGK5kS-6dNJRf-12" value="&lt;i&gt;main stack frame&lt;/i&gt;" style="text;html=1;strokeColor=none;fillColor=none;align=left;verticalAlign=middle;whiteSpace=wrap;rounded=0;" vertex="1" parent="LNpFDwtTGK5kS-6dNJRf-10">
          <mxGeometry width="190" height="20" as="geometry" />
        </mxCell>
        <mxCell id="LNpFDwtTGK5kS-6dNJRf-13" value="" style="rounded=0;whiteSpace=wrap;html=1;" vertex="1" parent="1">
          <mxGeometry x="55" y="110" width="250" height="260" as="geometry" />
        </mxCell>
        <mxCell id="LNpFDwtTGK5kS-6dNJRf-14" value="&lt;i&gt;insertAt stack frame&lt;/i&gt;" style="text;html=1;strokeColor=none;fillColor=none;align=left;verticalAlign=middle;whiteSpace=wrap;rounded=0;" vertex="1" parent="1">
          <mxGeometry x="55" y="110" width="190" height="20" as="geometry" />
        </mxCell>
        <mxCell id="LNpFDwtTGK5kS-6dNJRf-15" value="this" style="text;html=1;strokeColor=none;fillColor=none;align=center;verticalAlign=middle;whiteSpace=wrap;rounded=0;" vertex="1" parent="1">
          <mxGeometry x="65" y="150" width="60" height="20" as="geometry" />
        </mxCell>
        <mxCell id="LNpFDwtTGK5kS-6dNJRf-16" value="" style="rounded=0;whiteSpace=wrap;html=1;" vertex="1" parent="1">
          <mxGeometry x="115" y="150" width="150" height="110" as="geometry" />
        </mxCell>
        <mxCell id="LNpFDwtTGK5kS-6dNJRf-17" value="" style="group" vertex="1" connectable="0" parent="1">
          <mxGeometry x="145" y="190" width="110" height="30" as="geometry" />
        </mxCell>
        <mxCell id="LNpFDwtTGK5kS-6dNJRf-18" value="5" style="rounded=0;whiteSpace=wrap;html=1;" vertex="1" parent="LNpFDwtTGK5kS-6dNJRf-17">
          <mxGeometry x="40" width="70" height="30" as="geometry" />
        </mxCell>
        <mxCell id="LNpFDwtTGK5kS-6dNJRf-19" value="m_capacity" style="text;html=1;strokeColor=none;fillColor=none;align=right;verticalAlign=middle;whiteSpace=wrap;rounded=0;" vertex="1" parent="LNpFDwtTGK5kS-6dNJRf-17">
          <mxGeometry x="-20" y="5" width="60" height="20" as="geometry" />
        </mxCell>
        <mxCell id="LNpFDwtTGK5kS-6dNJRf-20" value="" style="group" vertex="1" connectable="0" parent="1">
          <mxGeometry x="145" y="220" width="110" height="30" as="geometry" />
        </mxCell>
        <mxCell id="LNpFDwtTGK5kS-6dNJRf-21" value="0x6FF0" style="rounded=0;whiteSpace=wrap;html=1;" vertex="1" parent="LNpFDwtTGK5kS-6dNJRf-20">
          <mxGeometry x="40" width="70" height="30" as="geometry" />
        </mxCell>
        <mxCell id="LNpFDwtTGK5kS-6dNJRf-22" value="m_arr" style="text;html=1;strokeColor=none;fillColor=none;align=center;verticalAlign=middle;whiteSpace=wrap;rounded=0;" vertex="1" parent="LNpFDwtTGK5kS-6dNJRf-20">
          <mxGeometry x="-20" y="5" width="60" height="20" as="geometry" />
        </mxCell>
        <mxCell id="LNpFDwtTGK5kS-6dNJRf-23" value="" style="group" vertex="1" connectable="0" parent="1">
          <mxGeometry x="145" y="160" width="110" height="30" as="geometry" />
        </mxCell>
        <mxCell id="LNpFDwtTGK5kS-6dNJRf-24" value="4" style="rounded=0;whiteSpace=wrap;html=1;" vertex="1" parent="LNpFDwtTGK5kS-6dNJRf-23">
          <mxGeometry x="40" width="70" height="30" as="geometry" />
        </mxCell>
        <mxCell id="LNpFDwtTGK5kS-6dNJRf-25" value="m_size" style="text;html=1;strokeColor=none;fillColor=none;align=right;verticalAlign=middle;whiteSpace=wrap;rounded=0;" vertex="1" parent="LNpFDwtTGK5kS-6dNJRf-23">
          <mxGeometry x="-20" y="5" width="60" height="20" as="geometry" />
        </mxCell>
        <mxCell id="LNpFDwtTGK5kS-6dNJRf-26" value="" style="group" vertex="1" connectable="0" parent="1">
          <mxGeometry x="75" y="269" width="110" height="30" as="geometry" />
        </mxCell>
        <mxCell id="LNpFDwtTGK5kS-6dNJRf-27" value="15" style="rounded=0;whiteSpace=wrap;html=1;" vertex="1" parent="LNpFDwtTGK5kS-6dNJRf-26">
          <mxGeometry x="40" width="70" height="30" as="geometry" />
        </mxCell>
        <mxCell id="LNpFDwtTGK5kS-6dNJRf-28" value="insertItem" style="text;html=1;strokeColor=none;fillColor=none;align=right;verticalAlign=middle;whiteSpace=wrap;rounded=0;" vertex="1" parent="LNpFDwtTGK5kS-6dNJRf-26">
          <mxGeometry x="-20" y="5" width="60" height="20" as="geometry" />
        </mxCell>
        <mxCell id="LNpFDwtTGK5kS-6dNJRf-43" value="" style="curved=1;endArrow=classic;html=1;rounded=0;exitX=1;exitY=0.5;exitDx=0;exitDy=0;entryX=0;entryY=0;entryDx=0;entryDy=0;" edge="1" parent="1" source="LNpFDwtTGK5kS-6dNJRf-21">
          <mxGeometry width="50" height="50" relative="1" as="geometry">
            <mxPoint x="260" y="155" as="sourcePoint" />
            <mxPoint x="480" y="110" as="targetPoint" />
            <Array as="points">
              <mxPoint x="350" y="160" />
              <mxPoint x="420" y="120" />
            </Array>
          </mxGeometry>
        </mxCell>
        <mxCell id="LNpFDwtTGK5kS-6dNJRf-44" value="40" style="rounded=0;whiteSpace=wrap;html=1;" vertex="1" parent="1">
          <mxGeometry x="480" y="200" width="70" height="30" as="geometry" />
        </mxCell>
        <mxCell id="LNpFDwtTGK5kS-6dNJRf-45" value="???" style="rounded=0;whiteSpace=wrap;html=1;fillColor=#f5f5f5;fontColor=#333333;strokeColor=#666666;" vertex="1" parent="1">
          <mxGeometry x="480" y="230" width="70" height="30" as="geometry" />
        </mxCell>
        <mxCell id="LNpFDwtTGK5kS-6dNJRf-46" value="" style="group" vertex="1" connectable="0" parent="1">
          <mxGeometry x="75" y="299" width="110" height="30" as="geometry" />
        </mxCell>
        <mxCell id="LNpFDwtTGK5kS-6dNJRf-47" value="1" style="rounded=0;whiteSpace=wrap;html=1;" vertex="1" parent="LNpFDwtTGK5kS-6dNJRf-46">
          <mxGeometry x="40" width="70" height="30" as="geometry" />
        </mxCell>
        <mxCell id="LNpFDwtTGK5kS-6dNJRf-48" value="location" style="text;html=1;strokeColor=none;fillColor=none;align=right;verticalAlign=middle;whiteSpace=wrap;rounded=0;" vertex="1" parent="LNpFDwtTGK5kS-6dNJRf-46">
          <mxGeometry x="-20" y="5" width="60" height="20" as="geometry" />
        </mxCell>
        <mxCell id="LNpFDwtTGK5kS-6dNJRf-52" value="3" style="text;html=1;align=right;verticalAlign=middle;whiteSpace=wrap;rounded=0;fontColor=#000000;" vertex="1" parent="1">
          <mxGeometry x="440" y="200" width="40" height="30" as="geometry" />
        </mxCell>
        <mxCell id="LNpFDwtTGK5kS-6dNJRf-53" value="4" style="text;html=1;align=right;verticalAlign=middle;whiteSpace=wrap;rounded=0;fontColor=#000000;" vertex="1" parent="1">
          <mxGeometry x="440" y="230" width="40" height="30" as="geometry" />
        </mxCell>
        <mxCell id="LNpFDwtTGK5kS-6dNJRf-57" value="Heap" style="rounded=0;whiteSpace=wrap;html=1;dashed=1;verticalAlign=top;fontStyle=1;fillColor=#d5e8d4;strokeColor=#82b366;fontColor=#000000;" vertex="1" parent="1">
          <mxGeometry x="380" y="400" width="370" height="320" as="geometry" />
        </mxCell>
        <mxCell id="LNpFDwtTGK5kS-6dNJRf-58" value="Stack" style="rounded=0;whiteSpace=wrap;html=1;dashed=1;verticalAlign=top;fontStyle=1;fillColor=#fff2cc;strokeColor=#d6b656;fontColor=#000000;" vertex="1" parent="1">
          <mxGeometry x="40" y="400" width="280" height="340" as="geometry" />
        </mxCell>
        <mxCell id="LNpFDwtTGK5kS-6dNJRf-59" value="10" style="rounded=0;whiteSpace=wrap;html=1;" vertex="1" parent="1">
          <mxGeometry x="480" y="470" width="70" height="30" as="geometry" />
        </mxCell>
        <mxCell id="LNpFDwtTGK5kS-6dNJRf-60" value="0x6FF0" style="text;html=1;align=center;verticalAlign=middle;whiteSpace=wrap;rounded=0;fontColor=#000000;" vertex="1" parent="1">
          <mxGeometry x="485" y="450" width="60" height="20" as="geometry" />
        </mxCell>
        <mxCell id="LNpFDwtTGK5kS-6dNJRf-61" value="20" style="rounded=0;whiteSpace=wrap;html=1;" vertex="1" parent="1">
          <mxGeometry x="480" y="500" width="70" height="30" as="geometry" />
        </mxCell>
        <mxCell id="LNpFDwtTGK5kS-6dNJRf-62" value="30" style="rounded=0;whiteSpace=wrap;html=1;" vertex="1" parent="1">
          <mxGeometry x="480" y="530" width="70" height="30" as="geometry" />
        </mxCell>
        <mxCell id="LNpFDwtTGK5kS-6dNJRf-63" value="0" style="text;html=1;align=right;verticalAlign=middle;whiteSpace=wrap;rounded=0;fontColor=#000000;" vertex="1" parent="1">
          <mxGeometry x="440" y="470" width="40" height="30" as="geometry" />
        </mxCell>
        <mxCell id="LNpFDwtTGK5kS-6dNJRf-64" value="1" style="text;html=1;align=right;verticalAlign=middle;whiteSpace=wrap;rounded=0;fontColor=#000000;" vertex="1" parent="1">
          <mxGeometry x="440" y="500" width="40" height="30" as="geometry" />
        </mxCell>
        <mxCell id="LNpFDwtTGK5kS-6dNJRf-65" value="2" style="text;html=1;align=right;verticalAlign=middle;whiteSpace=wrap;rounded=0;fontColor=#000000;" vertex="1" parent="1">
          <mxGeometry x="440" y="530" width="40" height="30" as="geometry" />
        </mxCell>
        <mxCell id="LNpFDwtTGK5kS-6dNJRf-66" value="" style="group" vertex="1" connectable="0" parent="1">
          <mxGeometry x="55" y="430" width="250" height="40" as="geometry" />
        </mxCell>
        <mxCell id="LNpFDwtTGK5kS-6dNJRf-67" value="..." style="rounded=0;whiteSpace=wrap;html=1;" vertex="1" parent="LNpFDwtTGK5kS-6dNJRf-66">
          <mxGeometry width="250" height="40" as="geometry" />
        </mxCell>
        <mxCell id="LNpFDwtTGK5kS-6dNJRf-68" value="&lt;i&gt;main stack frame&lt;/i&gt;" style="text;html=1;strokeColor=none;fillColor=none;align=left;verticalAlign=middle;whiteSpace=wrap;rounded=0;" vertex="1" parent="LNpFDwtTGK5kS-6dNJRf-66">
          <mxGeometry width="190" height="20" as="geometry" />
        </mxCell>
        <mxCell id="LNpFDwtTGK5kS-6dNJRf-69" value="" style="rounded=0;whiteSpace=wrap;html=1;" vertex="1" parent="1">
          <mxGeometry x="55" y="470" width="250" height="260" as="geometry" />
        </mxCell>
        <mxCell id="LNpFDwtTGK5kS-6dNJRf-70" value="&lt;i&gt;insertAt stack frame&lt;/i&gt;" style="text;html=1;strokeColor=none;fillColor=none;align=left;verticalAlign=middle;whiteSpace=wrap;rounded=0;" vertex="1" parent="1">
          <mxGeometry x="55" y="470" width="190" height="20" as="geometry" />
        </mxCell>
        <mxCell id="LNpFDwtTGK5kS-6dNJRf-71" value="this" style="text;html=1;strokeColor=none;fillColor=none;align=center;verticalAlign=middle;whiteSpace=wrap;rounded=0;" vertex="1" parent="1">
          <mxGeometry x="65" y="510" width="60" height="20" as="geometry" />
        </mxCell>
        <mxCell id="LNpFDwtTGK5kS-6dNJRf-72" value="" style="rounded=0;whiteSpace=wrap;html=1;" vertex="1" parent="1">
          <mxGeometry x="115" y="510" width="150" height="110" as="geometry" />
        </mxCell>
        <mxCell id="LNpFDwtTGK5kS-6dNJRf-73" value="" style="group" vertex="1" connectable="0" parent="1">
          <mxGeometry x="145" y="550" width="110" height="30" as="geometry" />
        </mxCell>
        <mxCell id="LNpFDwtTGK5kS-6dNJRf-74" value="5" style="rounded=0;whiteSpace=wrap;html=1;" vertex="1" parent="LNpFDwtTGK5kS-6dNJRf-73">
          <mxGeometry x="40" width="70" height="30" as="geometry" />
        </mxCell>
        <mxCell id="LNpFDwtTGK5kS-6dNJRf-75" value="m_capacity" style="text;html=1;strokeColor=none;fillColor=none;align=right;verticalAlign=middle;whiteSpace=wrap;rounded=0;" vertex="1" parent="LNpFDwtTGK5kS-6dNJRf-73">
          <mxGeometry x="-20" y="5" width="60" height="20" as="geometry" />
        </mxCell>
        <mxCell id="LNpFDwtTGK5kS-6dNJRf-76" value="" style="group" vertex="1" connectable="0" parent="1">
          <mxGeometry x="145" y="580" width="110" height="30" as="geometry" />
        </mxCell>
        <mxCell id="LNpFDwtTGK5kS-6dNJRf-77" value="0x6FF0" style="rounded=0;whiteSpace=wrap;html=1;" vertex="1" parent="LNpFDwtTGK5kS-6dNJRf-76">
          <mxGeometry x="40" width="70" height="30" as="geometry" />
        </mxCell>
        <mxCell id="LNpFDwtTGK5kS-6dNJRf-78" value="m_arr" style="text;html=1;strokeColor=none;fillColor=none;align=center;verticalAlign=middle;whiteSpace=wrap;rounded=0;" vertex="1" parent="LNpFDwtTGK5kS-6dNJRf-76">
          <mxGeometry x="-20" y="5" width="60" height="20" as="geometry" />
        </mxCell>
        <mxCell id="LNpFDwtTGK5kS-6dNJRf-79" value="" style="group" vertex="1" connectable="0" parent="1">
          <mxGeometry x="145" y="520" width="110" height="30" as="geometry" />
        </mxCell>
        <mxCell id="LNpFDwtTGK5kS-6dNJRf-80" value="4" style="rounded=0;whiteSpace=wrap;html=1;" vertex="1" parent="LNpFDwtTGK5kS-6dNJRf-79">
          <mxGeometry x="40" width="70" height="30" as="geometry" />
        </mxCell>
        <mxCell id="LNpFDwtTGK5kS-6dNJRf-81" value="m_size" style="text;html=1;strokeColor=none;fillColor=none;align=right;verticalAlign=middle;whiteSpace=wrap;rounded=0;" vertex="1" parent="LNpFDwtTGK5kS-6dNJRf-79">
          <mxGeometry x="-20" y="5" width="60" height="20" as="geometry" />
        </mxCell>
        <mxCell id="LNpFDwtTGK5kS-6dNJRf-82" value="" style="group" vertex="1" connectable="0" parent="1">
          <mxGeometry x="75" y="629" width="110" height="30" as="geometry" />
        </mxCell>
        <mxCell id="LNpFDwtTGK5kS-6dNJRf-83" value="15" style="rounded=0;whiteSpace=wrap;html=1;" vertex="1" parent="LNpFDwtTGK5kS-6dNJRf-82">
          <mxGeometry x="40" width="70" height="30" as="geometry" />
        </mxCell>
        <mxCell id="LNpFDwtTGK5kS-6dNJRf-84" value="insertItem" style="text;html=1;strokeColor=none;fillColor=none;align=right;verticalAlign=middle;whiteSpace=wrap;rounded=0;" vertex="1" parent="LNpFDwtTGK5kS-6dNJRf-82">
          <mxGeometry x="-20" y="5" width="60" height="20" as="geometry" />
        </mxCell>
        <mxCell id="LNpFDwtTGK5kS-6dNJRf-85" value="" style="curved=1;endArrow=classic;html=1;rounded=0;exitX=1;exitY=0.5;exitDx=0;exitDy=0;entryX=0;entryY=0;entryDx=0;entryDy=0;" edge="1" parent="1" source="LNpFDwtTGK5kS-6dNJRf-77">
          <mxGeometry width="50" height="50" relative="1" as="geometry">
            <mxPoint x="260" y="515" as="sourcePoint" />
            <mxPoint x="480" y="470" as="targetPoint" />
            <Array as="points">
              <mxPoint x="350" y="520" />
              <mxPoint x="420" y="480" />
            </Array>
          </mxGeometry>
        </mxCell>
        <mxCell id="LNpFDwtTGK5kS-6dNJRf-86" value="40" style="rounded=0;whiteSpace=wrap;html=1;" vertex="1" parent="1">
          <mxGeometry x="480" y="560" width="70" height="30" as="geometry" />
        </mxCell>
        <mxCell id="LNpFDwtTGK5kS-6dNJRf-87" value="40" style="rounded=0;whiteSpace=wrap;html=1;fillColor=#dae8fc;strokeColor=#6c8ebf;" vertex="1" parent="1">
          <mxGeometry x="480" y="590" width="70" height="30" as="geometry" />
        </mxCell>
        <mxCell id="LNpFDwtTGK5kS-6dNJRf-88" value="" style="group" vertex="1" connectable="0" parent="1">
          <mxGeometry x="75" y="659" width="110" height="30" as="geometry" />
        </mxCell>
        <mxCell id="LNpFDwtTGK5kS-6dNJRf-89" value="1" style="rounded=0;whiteSpace=wrap;html=1;" vertex="1" parent="LNpFDwtTGK5kS-6dNJRf-88">
          <mxGeometry x="40" width="70" height="30" as="geometry" />
        </mxCell>
        <mxCell id="LNpFDwtTGK5kS-6dNJRf-90" value="location" style="text;html=1;strokeColor=none;fillColor=none;align=right;verticalAlign=middle;whiteSpace=wrap;rounded=0;" vertex="1" parent="LNpFDwtTGK5kS-6dNJRf-88">
          <mxGeometry x="-20" y="5" width="60" height="20" as="geometry" />
        </mxCell>
        <mxCell id="LNpFDwtTGK5kS-6dNJRf-91" value="3" style="text;html=1;align=right;verticalAlign=middle;whiteSpace=wrap;rounded=0;fontColor=#000000;" vertex="1" parent="1">
          <mxGeometry x="440" y="560" width="40" height="30" as="geometry" />
        </mxCell>
        <mxCell id="LNpFDwtTGK5kS-6dNJRf-92" value="4" style="text;html=1;align=right;verticalAlign=middle;whiteSpace=wrap;rounded=0;fontColor=#000000;" vertex="1" parent="1">
          <mxGeometry x="440" y="590" width="40" height="30" as="geometry" />
        </mxCell>
        <mxCell id="LNpFDwtTGK5kS-6dNJRf-93" value="" style="group" vertex="1" connectable="0" parent="1">
          <mxGeometry x="75" y="689" width="110" height="30" as="geometry" />
        </mxCell>
        <mxCell id="LNpFDwtTGK5kS-6dNJRf-94" value="4" style="rounded=0;whiteSpace=wrap;html=1;fillColor=#dae8fc;strokeColor=#6c8ebf;" vertex="1" parent="LNpFDwtTGK5kS-6dNJRf-93">
          <mxGeometry x="40" width="70" height="30" as="geometry" />
        </mxCell>
        <mxCell id="LNpFDwtTGK5kS-6dNJRf-95" value="i" style="text;html=1;strokeColor=none;fillColor=none;align=right;verticalAlign=middle;whiteSpace=wrap;rounded=0;" vertex="1" parent="LNpFDwtTGK5kS-6dNJRf-93">
          <mxGeometry x="-20" y="5" width="60" height="20" as="geometry" />
        </mxCell>
        <mxCell id="LNpFDwtTGK5kS-6dNJRf-96" value="Heap" style="rounded=0;whiteSpace=wrap;html=1;dashed=1;verticalAlign=top;fontStyle=1;fillColor=#d5e8d4;strokeColor=#82b366;fontColor=#000000;" vertex="1" parent="1">
          <mxGeometry x="380" y="760" width="370" height="320" as="geometry" />
        </mxCell>
        <mxCell id="LNpFDwtTGK5kS-6dNJRf-97" value="Stack" style="rounded=0;whiteSpace=wrap;html=1;dashed=1;verticalAlign=top;fontStyle=1;fillColor=#fff2cc;strokeColor=#d6b656;fontColor=#000000;" vertex="1" parent="1">
          <mxGeometry x="40" y="760" width="280" height="340" as="geometry" />
        </mxCell>
        <mxCell id="LNpFDwtTGK5kS-6dNJRf-98" value="10" style="rounded=0;whiteSpace=wrap;html=1;" vertex="1" parent="1">
          <mxGeometry x="480" y="830" width="70" height="30" as="geometry" />
        </mxCell>
        <mxCell id="LNpFDwtTGK5kS-6dNJRf-99" value="0x6FF0" style="text;html=1;align=center;verticalAlign=middle;whiteSpace=wrap;rounded=0;fontColor=#000000;" vertex="1" parent="1">
          <mxGeometry x="485" y="810" width="60" height="20" as="geometry" />
        </mxCell>
        <mxCell id="LNpFDwtTGK5kS-6dNJRf-100" value="20" style="rounded=0;whiteSpace=wrap;html=1;" vertex="1" parent="1">
          <mxGeometry x="480" y="860" width="70" height="30" as="geometry" />
        </mxCell>
        <mxCell id="LNpFDwtTGK5kS-6dNJRf-101" value="30" style="rounded=0;whiteSpace=wrap;html=1;" vertex="1" parent="1">
          <mxGeometry x="480" y="890" width="70" height="30" as="geometry" />
        </mxCell>
        <mxCell id="LNpFDwtTGK5kS-6dNJRf-102" value="0" style="text;html=1;align=right;verticalAlign=middle;whiteSpace=wrap;rounded=0;fontColor=#000000;" vertex="1" parent="1">
          <mxGeometry x="440" y="830" width="40" height="30" as="geometry" />
        </mxCell>
        <mxCell id="LNpFDwtTGK5kS-6dNJRf-103" value="1" style="text;html=1;align=right;verticalAlign=middle;whiteSpace=wrap;rounded=0;fontColor=#000000;" vertex="1" parent="1">
          <mxGeometry x="440" y="860" width="40" height="30" as="geometry" />
        </mxCell>
        <mxCell id="LNpFDwtTGK5kS-6dNJRf-104" value="2" style="text;html=1;align=right;verticalAlign=middle;whiteSpace=wrap;rounded=0;fontColor=#000000;" vertex="1" parent="1">
          <mxGeometry x="440" y="890" width="40" height="30" as="geometry" />
        </mxCell>
        <mxCell id="LNpFDwtTGK5kS-6dNJRf-105" value="" style="group" vertex="1" connectable="0" parent="1">
          <mxGeometry x="55" y="790" width="250" height="40" as="geometry" />
        </mxCell>
        <mxCell id="LNpFDwtTGK5kS-6dNJRf-106" value="..." style="rounded=0;whiteSpace=wrap;html=1;" vertex="1" parent="LNpFDwtTGK5kS-6dNJRf-105">
          <mxGeometry width="250" height="40" as="geometry" />
        </mxCell>
        <mxCell id="LNpFDwtTGK5kS-6dNJRf-107" value="&lt;i&gt;main stack frame&lt;/i&gt;" style="text;html=1;strokeColor=none;fillColor=none;align=left;verticalAlign=middle;whiteSpace=wrap;rounded=0;" vertex="1" parent="LNpFDwtTGK5kS-6dNJRf-105">
          <mxGeometry width="190" height="20" as="geometry" />
        </mxCell>
        <mxCell id="LNpFDwtTGK5kS-6dNJRf-108" value="" style="rounded=0;whiteSpace=wrap;html=1;" vertex="1" parent="1">
          <mxGeometry x="55" y="830" width="250" height="260" as="geometry" />
        </mxCell>
        <mxCell id="LNpFDwtTGK5kS-6dNJRf-109" value="&lt;i&gt;insertAt stack frame&lt;/i&gt;" style="text;html=1;strokeColor=none;fillColor=none;align=left;verticalAlign=middle;whiteSpace=wrap;rounded=0;" vertex="1" parent="1">
          <mxGeometry x="55" y="830" width="190" height="20" as="geometry" />
        </mxCell>
        <mxCell id="LNpFDwtTGK5kS-6dNJRf-110" value="this" style="text;html=1;strokeColor=none;fillColor=none;align=center;verticalAlign=middle;whiteSpace=wrap;rounded=0;" vertex="1" parent="1">
          <mxGeometry x="65" y="870" width="60" height="20" as="geometry" />
        </mxCell>
        <mxCell id="LNpFDwtTGK5kS-6dNJRf-111" value="" style="rounded=0;whiteSpace=wrap;html=1;" vertex="1" parent="1">
          <mxGeometry x="115" y="870" width="150" height="110" as="geometry" />
        </mxCell>
        <mxCell id="LNpFDwtTGK5kS-6dNJRf-112" value="" style="group" vertex="1" connectable="0" parent="1">
          <mxGeometry x="145" y="910" width="110" height="30" as="geometry" />
        </mxCell>
        <mxCell id="LNpFDwtTGK5kS-6dNJRf-113" value="5" style="rounded=0;whiteSpace=wrap;html=1;" vertex="1" parent="LNpFDwtTGK5kS-6dNJRf-112">
          <mxGeometry x="40" width="70" height="30" as="geometry" />
        </mxCell>
        <mxCell id="LNpFDwtTGK5kS-6dNJRf-114" value="m_capacity" style="text;html=1;strokeColor=none;fillColor=none;align=right;verticalAlign=middle;whiteSpace=wrap;rounded=0;" vertex="1" parent="LNpFDwtTGK5kS-6dNJRf-112">
          <mxGeometry x="-20" y="5" width="60" height="20" as="geometry" />
        </mxCell>
        <mxCell id="LNpFDwtTGK5kS-6dNJRf-115" value="" style="group" vertex="1" connectable="0" parent="1">
          <mxGeometry x="145" y="940" width="110" height="30" as="geometry" />
        </mxCell>
        <mxCell id="LNpFDwtTGK5kS-6dNJRf-116" value="0x6FF0" style="rounded=0;whiteSpace=wrap;html=1;" vertex="1" parent="LNpFDwtTGK5kS-6dNJRf-115">
          <mxGeometry x="40" width="70" height="30" as="geometry" />
        </mxCell>
        <mxCell id="LNpFDwtTGK5kS-6dNJRf-117" value="m_arr" style="text;html=1;strokeColor=none;fillColor=none;align=center;verticalAlign=middle;whiteSpace=wrap;rounded=0;" vertex="1" parent="LNpFDwtTGK5kS-6dNJRf-115">
          <mxGeometry x="-20" y="5" width="60" height="20" as="geometry" />
        </mxCell>
        <mxCell id="LNpFDwtTGK5kS-6dNJRf-118" value="" style="group" vertex="1" connectable="0" parent="1">
          <mxGeometry x="145" y="880" width="110" height="30" as="geometry" />
        </mxCell>
        <mxCell id="LNpFDwtTGK5kS-6dNJRf-119" value="4" style="rounded=0;whiteSpace=wrap;html=1;" vertex="1" parent="LNpFDwtTGK5kS-6dNJRf-118">
          <mxGeometry x="40" width="70" height="30" as="geometry" />
        </mxCell>
        <mxCell id="LNpFDwtTGK5kS-6dNJRf-120" value="m_size" style="text;html=1;strokeColor=none;fillColor=none;align=right;verticalAlign=middle;whiteSpace=wrap;rounded=0;" vertex="1" parent="LNpFDwtTGK5kS-6dNJRf-118">
          <mxGeometry x="-20" y="5" width="60" height="20" as="geometry" />
        </mxCell>
        <mxCell id="LNpFDwtTGK5kS-6dNJRf-121" value="" style="group" vertex="1" connectable="0" parent="1">
          <mxGeometry x="75" y="989" width="110" height="30" as="geometry" />
        </mxCell>
        <mxCell id="LNpFDwtTGK5kS-6dNJRf-122" value="15" style="rounded=0;whiteSpace=wrap;html=1;" vertex="1" parent="LNpFDwtTGK5kS-6dNJRf-121">
          <mxGeometry x="40" width="70" height="30" as="geometry" />
        </mxCell>
        <mxCell id="LNpFDwtTGK5kS-6dNJRf-123" value="insertItem" style="text;html=1;strokeColor=none;fillColor=none;align=right;verticalAlign=middle;whiteSpace=wrap;rounded=0;" vertex="1" parent="LNpFDwtTGK5kS-6dNJRf-121">
          <mxGeometry x="-20" y="5" width="60" height="20" as="geometry" />
        </mxCell>
        <mxCell id="LNpFDwtTGK5kS-6dNJRf-124" value="" style="curved=1;endArrow=classic;html=1;rounded=0;exitX=1;exitY=0.5;exitDx=0;exitDy=0;entryX=0;entryY=0;entryDx=0;entryDy=0;" edge="1" parent="1" source="LNpFDwtTGK5kS-6dNJRf-116">
          <mxGeometry width="50" height="50" relative="1" as="geometry">
            <mxPoint x="260" y="875" as="sourcePoint" />
            <mxPoint x="480" y="830" as="targetPoint" />
            <Array as="points">
              <mxPoint x="350" y="880" />
              <mxPoint x="420" y="840" />
            </Array>
          </mxGeometry>
        </mxCell>
        <mxCell id="LNpFDwtTGK5kS-6dNJRf-125" value="30" style="rounded=0;whiteSpace=wrap;html=1;fillColor=#dae8fc;strokeColor=#6c8ebf;" vertex="1" parent="1">
          <mxGeometry x="480" y="920" width="70" height="30" as="geometry" />
        </mxCell>
        <mxCell id="LNpFDwtTGK5kS-6dNJRf-126" value="40" style="rounded=0;whiteSpace=wrap;html=1;" vertex="1" parent="1">
          <mxGeometry x="480" y="950" width="70" height="30" as="geometry" />
        </mxCell>
        <mxCell id="LNpFDwtTGK5kS-6dNJRf-127" value="" style="group" vertex="1" connectable="0" parent="1">
          <mxGeometry x="75" y="1019" width="110" height="30" as="geometry" />
        </mxCell>
        <mxCell id="LNpFDwtTGK5kS-6dNJRf-128" value="1" style="rounded=0;whiteSpace=wrap;html=1;" vertex="1" parent="LNpFDwtTGK5kS-6dNJRf-127">
          <mxGeometry x="40" width="70" height="30" as="geometry" />
        </mxCell>
        <mxCell id="LNpFDwtTGK5kS-6dNJRf-129" value="location" style="text;html=1;strokeColor=none;fillColor=none;align=right;verticalAlign=middle;whiteSpace=wrap;rounded=0;" vertex="1" parent="LNpFDwtTGK5kS-6dNJRf-127">
          <mxGeometry x="-20" y="5" width="60" height="20" as="geometry" />
        </mxCell>
        <mxCell id="LNpFDwtTGK5kS-6dNJRf-130" value="3" style="text;html=1;align=right;verticalAlign=middle;whiteSpace=wrap;rounded=0;fontColor=#000000;" vertex="1" parent="1">
          <mxGeometry x="440" y="920" width="40" height="30" as="geometry" />
        </mxCell>
        <mxCell id="LNpFDwtTGK5kS-6dNJRf-131" value="4" style="text;html=1;align=right;verticalAlign=middle;whiteSpace=wrap;rounded=0;fontColor=#000000;" vertex="1" parent="1">
          <mxGeometry x="440" y="950" width="40" height="30" as="geometry" />
        </mxCell>
        <mxCell id="LNpFDwtTGK5kS-6dNJRf-132" value="" style="group" vertex="1" connectable="0" parent="1">
          <mxGeometry x="75" y="1049" width="110" height="30" as="geometry" />
        </mxCell>
        <mxCell id="LNpFDwtTGK5kS-6dNJRf-133" value="3" style="rounded=0;whiteSpace=wrap;html=1;fillColor=#dae8fc;strokeColor=#6c8ebf;" vertex="1" parent="LNpFDwtTGK5kS-6dNJRf-132">
          <mxGeometry x="40" width="70" height="30" as="geometry" />
        </mxCell>
        <mxCell id="LNpFDwtTGK5kS-6dNJRf-134" value="i" style="text;html=1;strokeColor=none;fillColor=none;align=right;verticalAlign=middle;whiteSpace=wrap;rounded=0;" vertex="1" parent="LNpFDwtTGK5kS-6dNJRf-132">
          <mxGeometry x="-20" y="5" width="60" height="20" as="geometry" />
        </mxCell>
        <mxCell id="LNpFDwtTGK5kS-6dNJRf-135" value="Heap" style="rounded=0;whiteSpace=wrap;html=1;dashed=1;verticalAlign=top;fontStyle=1;fillColor=#d5e8d4;strokeColor=#82b366;fontColor=#000000;" vertex="1" parent="1">
          <mxGeometry x="380" y="1120" width="370" height="320" as="geometry" />
        </mxCell>
        <mxCell id="LNpFDwtTGK5kS-6dNJRf-136" value="Stack" style="rounded=0;whiteSpace=wrap;html=1;dashed=1;verticalAlign=top;fontStyle=1;fillColor=#fff2cc;strokeColor=#d6b656;fontColor=#000000;" vertex="1" parent="1">
          <mxGeometry x="40" y="1120" width="280" height="340" as="geometry" />
        </mxCell>
        <mxCell id="LNpFDwtTGK5kS-6dNJRf-137" value="10" style="rounded=0;whiteSpace=wrap;html=1;" vertex="1" parent="1">
          <mxGeometry x="480" y="1190" width="70" height="30" as="geometry" />
        </mxCell>
        <mxCell id="LNpFDwtTGK5kS-6dNJRf-138" value="0x6FF0" style="text;html=1;align=center;verticalAlign=middle;whiteSpace=wrap;rounded=0;fontColor=#000000;" vertex="1" parent="1">
          <mxGeometry x="485" y="1170" width="60" height="20" as="geometry" />
        </mxCell>
        <mxCell id="LNpFDwtTGK5kS-6dNJRf-139" value="20" style="rounded=0;whiteSpace=wrap;html=1;" vertex="1" parent="1">
          <mxGeometry x="480" y="1220" width="70" height="30" as="geometry" />
        </mxCell>
        <mxCell id="LNpFDwtTGK5kS-6dNJRf-140" value="20" style="rounded=0;whiteSpace=wrap;html=1;fillColor=#dae8fc;strokeColor=#6c8ebf;" vertex="1" parent="1">
          <mxGeometry x="480" y="1250" width="70" height="30" as="geometry" />
        </mxCell>
        <mxCell id="LNpFDwtTGK5kS-6dNJRf-141" value="0" style="text;html=1;align=right;verticalAlign=middle;whiteSpace=wrap;rounded=0;fontColor=#000000;" vertex="1" parent="1">
          <mxGeometry x="440" y="1190" width="40" height="30" as="geometry" />
        </mxCell>
        <mxCell id="LNpFDwtTGK5kS-6dNJRf-142" value="1" style="text;html=1;align=right;verticalAlign=middle;whiteSpace=wrap;rounded=0;fontColor=#000000;" vertex="1" parent="1">
          <mxGeometry x="440" y="1220" width="40" height="30" as="geometry" />
        </mxCell>
        <mxCell id="LNpFDwtTGK5kS-6dNJRf-143" value="2" style="text;html=1;align=right;verticalAlign=middle;whiteSpace=wrap;rounded=0;fontColor=#000000;" vertex="1" parent="1">
          <mxGeometry x="440" y="1250" width="40" height="30" as="geometry" />
        </mxCell>
        <mxCell id="LNpFDwtTGK5kS-6dNJRf-144" value="" style="group" vertex="1" connectable="0" parent="1">
          <mxGeometry x="55" y="1150" width="250" height="40" as="geometry" />
        </mxCell>
        <mxCell id="LNpFDwtTGK5kS-6dNJRf-145" value="..." style="rounded=0;whiteSpace=wrap;html=1;" vertex="1" parent="LNpFDwtTGK5kS-6dNJRf-144">
          <mxGeometry width="250" height="40" as="geometry" />
        </mxCell>
        <mxCell id="LNpFDwtTGK5kS-6dNJRf-146" value="&lt;i&gt;main stack frame&lt;/i&gt;" style="text;html=1;strokeColor=none;fillColor=none;align=left;verticalAlign=middle;whiteSpace=wrap;rounded=0;" vertex="1" parent="LNpFDwtTGK5kS-6dNJRf-144">
          <mxGeometry width="190" height="20" as="geometry" />
        </mxCell>
        <mxCell id="LNpFDwtTGK5kS-6dNJRf-147" value="" style="rounded=0;whiteSpace=wrap;html=1;" vertex="1" parent="1">
          <mxGeometry x="55" y="1190" width="250" height="260" as="geometry" />
        </mxCell>
        <mxCell id="LNpFDwtTGK5kS-6dNJRf-148" value="&lt;i&gt;insertAt stack frame&lt;/i&gt;" style="text;html=1;strokeColor=none;fillColor=none;align=left;verticalAlign=middle;whiteSpace=wrap;rounded=0;" vertex="1" parent="1">
          <mxGeometry x="55" y="1190" width="190" height="20" as="geometry" />
        </mxCell>
        <mxCell id="LNpFDwtTGK5kS-6dNJRf-149" value="this" style="text;html=1;strokeColor=none;fillColor=none;align=center;verticalAlign=middle;whiteSpace=wrap;rounded=0;" vertex="1" parent="1">
          <mxGeometry x="65" y="1230" width="60" height="20" as="geometry" />
        </mxCell>
        <mxCell id="LNpFDwtTGK5kS-6dNJRf-150" value="" style="rounded=0;whiteSpace=wrap;html=1;" vertex="1" parent="1">
          <mxGeometry x="115" y="1230" width="150" height="110" as="geometry" />
        </mxCell>
        <mxCell id="LNpFDwtTGK5kS-6dNJRf-151" value="" style="group" vertex="1" connectable="0" parent="1">
          <mxGeometry x="145" y="1270" width="110" height="30" as="geometry" />
        </mxCell>
        <mxCell id="LNpFDwtTGK5kS-6dNJRf-152" value="5" style="rounded=0;whiteSpace=wrap;html=1;" vertex="1" parent="LNpFDwtTGK5kS-6dNJRf-151">
          <mxGeometry x="40" width="70" height="30" as="geometry" />
        </mxCell>
        <mxCell id="LNpFDwtTGK5kS-6dNJRf-153" value="m_capacity" style="text;html=1;strokeColor=none;fillColor=none;align=right;verticalAlign=middle;whiteSpace=wrap;rounded=0;" vertex="1" parent="LNpFDwtTGK5kS-6dNJRf-151">
          <mxGeometry x="-20" y="5" width="60" height="20" as="geometry" />
        </mxCell>
        <mxCell id="LNpFDwtTGK5kS-6dNJRf-154" value="" style="group" vertex="1" connectable="0" parent="1">
          <mxGeometry x="145" y="1300" width="110" height="30" as="geometry" />
        </mxCell>
        <mxCell id="LNpFDwtTGK5kS-6dNJRf-155" value="0x6FF0" style="rounded=0;whiteSpace=wrap;html=1;" vertex="1" parent="LNpFDwtTGK5kS-6dNJRf-154">
          <mxGeometry x="40" width="70" height="30" as="geometry" />
        </mxCell>
        <mxCell id="LNpFDwtTGK5kS-6dNJRf-156" value="m_arr" style="text;html=1;strokeColor=none;fillColor=none;align=center;verticalAlign=middle;whiteSpace=wrap;rounded=0;" vertex="1" parent="LNpFDwtTGK5kS-6dNJRf-154">
          <mxGeometry x="-20" y="5" width="60" height="20" as="geometry" />
        </mxCell>
        <mxCell id="LNpFDwtTGK5kS-6dNJRf-157" value="" style="group" vertex="1" connectable="0" parent="1">
          <mxGeometry x="145" y="1240" width="110" height="30" as="geometry" />
        </mxCell>
        <mxCell id="LNpFDwtTGK5kS-6dNJRf-158" value="4" style="rounded=0;whiteSpace=wrap;html=1;" vertex="1" parent="LNpFDwtTGK5kS-6dNJRf-157">
          <mxGeometry x="40" width="70" height="30" as="geometry" />
        </mxCell>
        <mxCell id="LNpFDwtTGK5kS-6dNJRf-159" value="m_size" style="text;html=1;strokeColor=none;fillColor=none;align=right;verticalAlign=middle;whiteSpace=wrap;rounded=0;" vertex="1" parent="LNpFDwtTGK5kS-6dNJRf-157">
          <mxGeometry x="-20" y="5" width="60" height="20" as="geometry" />
        </mxCell>
        <mxCell id="LNpFDwtTGK5kS-6dNJRf-160" value="" style="group" vertex="1" connectable="0" parent="1">
          <mxGeometry x="75" y="1349" width="110" height="30" as="geometry" />
        </mxCell>
        <mxCell id="LNpFDwtTGK5kS-6dNJRf-161" value="15" style="rounded=0;whiteSpace=wrap;html=1;" vertex="1" parent="LNpFDwtTGK5kS-6dNJRf-160">
          <mxGeometry x="40" width="70" height="30" as="geometry" />
        </mxCell>
        <mxCell id="LNpFDwtTGK5kS-6dNJRf-162" value="insertItem" style="text;html=1;strokeColor=none;fillColor=none;align=right;verticalAlign=middle;whiteSpace=wrap;rounded=0;" vertex="1" parent="LNpFDwtTGK5kS-6dNJRf-160">
          <mxGeometry x="-20" y="5" width="60" height="20" as="geometry" />
        </mxCell>
        <mxCell id="LNpFDwtTGK5kS-6dNJRf-163" value="" style="curved=1;endArrow=classic;html=1;rounded=0;exitX=1;exitY=0.5;exitDx=0;exitDy=0;entryX=0;entryY=0;entryDx=0;entryDy=0;" edge="1" parent="1" source="LNpFDwtTGK5kS-6dNJRf-155">
          <mxGeometry width="50" height="50" relative="1" as="geometry">
            <mxPoint x="260" y="1235" as="sourcePoint" />
            <mxPoint x="480" y="1190" as="targetPoint" />
            <Array as="points">
              <mxPoint x="350" y="1240" />
              <mxPoint x="420" y="1200" />
            </Array>
          </mxGeometry>
        </mxCell>
        <mxCell id="LNpFDwtTGK5kS-6dNJRf-164" value="30" style="rounded=0;whiteSpace=wrap;html=1;" vertex="1" parent="1">
          <mxGeometry x="480" y="1280" width="70" height="30" as="geometry" />
        </mxCell>
        <mxCell id="LNpFDwtTGK5kS-6dNJRf-165" value="40" style="rounded=0;whiteSpace=wrap;html=1;" vertex="1" parent="1">
          <mxGeometry x="480" y="1310" width="70" height="30" as="geometry" />
        </mxCell>
        <mxCell id="LNpFDwtTGK5kS-6dNJRf-166" value="" style="group" vertex="1" connectable="0" parent="1">
          <mxGeometry x="75" y="1379" width="110" height="30" as="geometry" />
        </mxCell>
        <mxCell id="LNpFDwtTGK5kS-6dNJRf-167" value="1" style="rounded=0;whiteSpace=wrap;html=1;" vertex="1" parent="LNpFDwtTGK5kS-6dNJRf-166">
          <mxGeometry x="40" width="70" height="30" as="geometry" />
        </mxCell>
        <mxCell id="LNpFDwtTGK5kS-6dNJRf-168" value="location" style="text;html=1;strokeColor=none;fillColor=none;align=right;verticalAlign=middle;whiteSpace=wrap;rounded=0;" vertex="1" parent="LNpFDwtTGK5kS-6dNJRf-166">
          <mxGeometry x="-20" y="5" width="60" height="20" as="geometry" />
        </mxCell>
        <mxCell id="LNpFDwtTGK5kS-6dNJRf-169" value="3" style="text;html=1;align=right;verticalAlign=middle;whiteSpace=wrap;rounded=0;fontColor=#000000;" vertex="1" parent="1">
          <mxGeometry x="440" y="1280" width="40" height="30" as="geometry" />
        </mxCell>
        <mxCell id="LNpFDwtTGK5kS-6dNJRf-170" value="4" style="text;html=1;align=right;verticalAlign=middle;whiteSpace=wrap;rounded=0;fontColor=#000000;" vertex="1" parent="1">
          <mxGeometry x="440" y="1310" width="40" height="30" as="geometry" />
        </mxCell>
        <mxCell id="LNpFDwtTGK5kS-6dNJRf-171" value="" style="group" vertex="1" connectable="0" parent="1">
          <mxGeometry x="75" y="1409" width="110" height="30" as="geometry" />
        </mxCell>
        <mxCell id="LNpFDwtTGK5kS-6dNJRf-172" value="2" style="rounded=0;whiteSpace=wrap;html=1;fillColor=#dae8fc;strokeColor=#6c8ebf;" vertex="1" parent="LNpFDwtTGK5kS-6dNJRf-171">
          <mxGeometry x="40" width="70" height="30" as="geometry" />
        </mxCell>
        <mxCell id="LNpFDwtTGK5kS-6dNJRf-173" value="i" style="text;html=1;strokeColor=none;fillColor=none;align=right;verticalAlign=middle;whiteSpace=wrap;rounded=0;" vertex="1" parent="LNpFDwtTGK5kS-6dNJRf-171">
          <mxGeometry x="-20" y="5" width="60" height="20" as="geometry" />
        </mxCell>
        <mxCell id="LNpFDwtTGK5kS-6dNJRf-174" value="Heap" style="rounded=0;whiteSpace=wrap;html=1;dashed=1;verticalAlign=top;fontStyle=1;fillColor=#d5e8d4;strokeColor=#82b366;fontColor=#000000;" vertex="1" parent="1">
          <mxGeometry x="380" y="1520" width="370" height="320" as="geometry" />
        </mxCell>
        <mxCell id="LNpFDwtTGK5kS-6dNJRf-175" value="Stack" style="rounded=0;whiteSpace=wrap;html=1;dashed=1;verticalAlign=top;fontStyle=1;fillColor=#fff2cc;strokeColor=#d6b656;fontColor=#000000;" vertex="1" parent="1">
          <mxGeometry x="40" y="1520" width="280" height="340" as="geometry" />
        </mxCell>
        <mxCell id="LNpFDwtTGK5kS-6dNJRf-176" value="10" style="rounded=0;whiteSpace=wrap;html=1;" vertex="1" parent="1">
          <mxGeometry x="480" y="1590" width="70" height="30" as="geometry" />
        </mxCell>
        <mxCell id="LNpFDwtTGK5kS-6dNJRf-177" value="0x6FF0" style="text;html=1;align=center;verticalAlign=middle;whiteSpace=wrap;rounded=0;fontColor=#000000;" vertex="1" parent="1">
          <mxGeometry x="485" y="1570" width="60" height="20" as="geometry" />
        </mxCell>
        <mxCell id="LNpFDwtTGK5kS-6dNJRf-178" value="15" style="rounded=0;whiteSpace=wrap;html=1;fillColor=#dae8fc;strokeColor=#6c8ebf;" vertex="1" parent="1">
          <mxGeometry x="480" y="1620" width="70" height="30" as="geometry" />
        </mxCell>
        <mxCell id="LNpFDwtTGK5kS-6dNJRf-179" value="20" style="rounded=0;whiteSpace=wrap;html=1;" vertex="1" parent="1">
          <mxGeometry x="480" y="1650" width="70" height="30" as="geometry" />
        </mxCell>
        <mxCell id="LNpFDwtTGK5kS-6dNJRf-180" value="0" style="text;html=1;align=right;verticalAlign=middle;whiteSpace=wrap;rounded=0;fontColor=#000000;" vertex="1" parent="1">
          <mxGeometry x="440" y="1590" width="40" height="30" as="geometry" />
        </mxCell>
        <mxCell id="LNpFDwtTGK5kS-6dNJRf-181" value="1" style="text;html=1;align=right;verticalAlign=middle;whiteSpace=wrap;rounded=0;fontColor=#000000;" vertex="1" parent="1">
          <mxGeometry x="440" y="1620" width="40" height="30" as="geometry" />
        </mxCell>
        <mxCell id="LNpFDwtTGK5kS-6dNJRf-182" value="2" style="text;html=1;align=right;verticalAlign=middle;whiteSpace=wrap;rounded=0;fontColor=#000000;" vertex="1" parent="1">
          <mxGeometry x="440" y="1650" width="40" height="30" as="geometry" />
        </mxCell>
        <mxCell id="LNpFDwtTGK5kS-6dNJRf-183" value="" style="group" vertex="1" connectable="0" parent="1">
          <mxGeometry x="55" y="1550" width="250" height="40" as="geometry" />
        </mxCell>
        <mxCell id="LNpFDwtTGK5kS-6dNJRf-184" value="..." style="rounded=0;whiteSpace=wrap;html=1;" vertex="1" parent="LNpFDwtTGK5kS-6dNJRf-183">
          <mxGeometry width="250" height="40" as="geometry" />
        </mxCell>
        <mxCell id="LNpFDwtTGK5kS-6dNJRf-185" value="&lt;i&gt;main stack frame&lt;/i&gt;" style="text;html=1;strokeColor=none;fillColor=none;align=left;verticalAlign=middle;whiteSpace=wrap;rounded=0;" vertex="1" parent="LNpFDwtTGK5kS-6dNJRf-183">
          <mxGeometry width="190" height="20" as="geometry" />
        </mxCell>
        <mxCell id="LNpFDwtTGK5kS-6dNJRf-186" value="" style="rounded=0;whiteSpace=wrap;html=1;" vertex="1" parent="1">
          <mxGeometry x="55" y="1590" width="250" height="260" as="geometry" />
        </mxCell>
        <mxCell id="LNpFDwtTGK5kS-6dNJRf-187" value="&lt;i&gt;insertAt stack frame&lt;/i&gt;" style="text;html=1;strokeColor=none;fillColor=none;align=left;verticalAlign=middle;whiteSpace=wrap;rounded=0;" vertex="1" parent="1">
          <mxGeometry x="55" y="1590" width="190" height="20" as="geometry" />
        </mxCell>
        <mxCell id="LNpFDwtTGK5kS-6dNJRf-188" value="this" style="text;html=1;strokeColor=none;fillColor=none;align=center;verticalAlign=middle;whiteSpace=wrap;rounded=0;" vertex="1" parent="1">
          <mxGeometry x="65" y="1630" width="60" height="20" as="geometry" />
        </mxCell>
        <mxCell id="LNpFDwtTGK5kS-6dNJRf-189" value="" style="rounded=0;whiteSpace=wrap;html=1;" vertex="1" parent="1">
          <mxGeometry x="115" y="1630" width="150" height="110" as="geometry" />
        </mxCell>
        <mxCell id="LNpFDwtTGK5kS-6dNJRf-190" value="" style="group" vertex="1" connectable="0" parent="1">
          <mxGeometry x="145" y="1670" width="110" height="30" as="geometry" />
        </mxCell>
        <mxCell id="LNpFDwtTGK5kS-6dNJRf-191" value="5" style="rounded=0;whiteSpace=wrap;html=1;" vertex="1" parent="LNpFDwtTGK5kS-6dNJRf-190">
          <mxGeometry x="40" width="70" height="30" as="geometry" />
        </mxCell>
        <mxCell id="LNpFDwtTGK5kS-6dNJRf-192" value="m_capacity" style="text;html=1;strokeColor=none;fillColor=none;align=right;verticalAlign=middle;whiteSpace=wrap;rounded=0;" vertex="1" parent="LNpFDwtTGK5kS-6dNJRf-190">
          <mxGeometry x="-20" y="5" width="60" height="20" as="geometry" />
        </mxCell>
        <mxCell id="LNpFDwtTGK5kS-6dNJRf-193" value="" style="group" vertex="1" connectable="0" parent="1">
          <mxGeometry x="145" y="1700" width="110" height="30" as="geometry" />
        </mxCell>
        <mxCell id="LNpFDwtTGK5kS-6dNJRf-194" value="0x6FF0" style="rounded=0;whiteSpace=wrap;html=1;" vertex="1" parent="LNpFDwtTGK5kS-6dNJRf-193">
          <mxGeometry x="40" width="70" height="30" as="geometry" />
        </mxCell>
        <mxCell id="LNpFDwtTGK5kS-6dNJRf-195" value="m_arr" style="text;html=1;strokeColor=none;fillColor=none;align=center;verticalAlign=middle;whiteSpace=wrap;rounded=0;" vertex="1" parent="LNpFDwtTGK5kS-6dNJRf-193">
          <mxGeometry x="-20" y="5" width="60" height="20" as="geometry" />
        </mxCell>
        <mxCell id="LNpFDwtTGK5kS-6dNJRf-196" value="" style="group" vertex="1" connectable="0" parent="1">
          <mxGeometry x="145" y="1640" width="110" height="30" as="geometry" />
        </mxCell>
        <mxCell id="LNpFDwtTGK5kS-6dNJRf-197" value="4" style="rounded=0;whiteSpace=wrap;html=1;" vertex="1" parent="LNpFDwtTGK5kS-6dNJRf-196">
          <mxGeometry x="40" width="70" height="30" as="geometry" />
        </mxCell>
        <mxCell id="LNpFDwtTGK5kS-6dNJRf-198" value="m_size" style="text;html=1;strokeColor=none;fillColor=none;align=right;verticalAlign=middle;whiteSpace=wrap;rounded=0;" vertex="1" parent="LNpFDwtTGK5kS-6dNJRf-196">
          <mxGeometry x="-20" y="5" width="60" height="20" as="geometry" />
        </mxCell>
        <mxCell id="LNpFDwtTGK5kS-6dNJRf-199" value="" style="group" vertex="1" connectable="0" parent="1">
          <mxGeometry x="75" y="1749" width="110" height="30" as="geometry" />
        </mxCell>
        <mxCell id="LNpFDwtTGK5kS-6dNJRf-200" value="15" style="rounded=0;whiteSpace=wrap;html=1;" vertex="1" parent="LNpFDwtTGK5kS-6dNJRf-199">
          <mxGeometry x="40" width="70" height="30" as="geometry" />
        </mxCell>
        <mxCell id="LNpFDwtTGK5kS-6dNJRf-201" value="insertItem" style="text;html=1;strokeColor=none;fillColor=none;align=right;verticalAlign=middle;whiteSpace=wrap;rounded=0;" vertex="1" parent="LNpFDwtTGK5kS-6dNJRf-199">
          <mxGeometry x="-20" y="5" width="60" height="20" as="geometry" />
        </mxCell>
        <mxCell id="LNpFDwtTGK5kS-6dNJRf-202" value="" style="curved=1;endArrow=classic;html=1;rounded=0;exitX=1;exitY=0.5;exitDx=0;exitDy=0;entryX=0;entryY=0;entryDx=0;entryDy=0;" edge="1" parent="1" source="LNpFDwtTGK5kS-6dNJRf-194">
          <mxGeometry width="50" height="50" relative="1" as="geometry">
            <mxPoint x="260" y="1635" as="sourcePoint" />
            <mxPoint x="480" y="1590" as="targetPoint" />
            <Array as="points">
              <mxPoint x="350" y="1640" />
              <mxPoint x="420" y="1600" />
            </Array>
          </mxGeometry>
        </mxCell>
        <mxCell id="LNpFDwtTGK5kS-6dNJRf-203" value="30" style="rounded=0;whiteSpace=wrap;html=1;" vertex="1" parent="1">
          <mxGeometry x="480" y="1680" width="70" height="30" as="geometry" />
        </mxCell>
        <mxCell id="LNpFDwtTGK5kS-6dNJRf-204" value="40" style="rounded=0;whiteSpace=wrap;html=1;" vertex="1" parent="1">
          <mxGeometry x="480" y="1710" width="70" height="30" as="geometry" />
        </mxCell>
        <mxCell id="LNpFDwtTGK5kS-6dNJRf-205" value="" style="group" vertex="1" connectable="0" parent="1">
          <mxGeometry x="75" y="1779" width="110" height="30" as="geometry" />
        </mxCell>
        <mxCell id="LNpFDwtTGK5kS-6dNJRf-206" value="1" style="rounded=0;whiteSpace=wrap;html=1;" vertex="1" parent="LNpFDwtTGK5kS-6dNJRf-205">
          <mxGeometry x="40" width="70" height="30" as="geometry" />
        </mxCell>
        <mxCell id="LNpFDwtTGK5kS-6dNJRf-207" value="location" style="text;html=1;strokeColor=none;fillColor=none;align=right;verticalAlign=middle;whiteSpace=wrap;rounded=0;" vertex="1" parent="LNpFDwtTGK5kS-6dNJRf-205">
          <mxGeometry x="-20" y="5" width="60" height="20" as="geometry" />
        </mxCell>
        <mxCell id="LNpFDwtTGK5kS-6dNJRf-208" value="3" style="text;html=1;align=right;verticalAlign=middle;whiteSpace=wrap;rounded=0;fontColor=#000000;" vertex="1" parent="1">
          <mxGeometry x="440" y="1680" width="40" height="30" as="geometry" />
        </mxCell>
        <mxCell id="LNpFDwtTGK5kS-6dNJRf-209" value="4" style="text;html=1;align=right;verticalAlign=middle;whiteSpace=wrap;rounded=0;fontColor=#000000;" vertex="1" parent="1">
          <mxGeometry x="440" y="1710" width="40" height="30" as="geometry" />
        </mxCell>
        <mxCell id="LNpFDwtTGK5kS-6dNJRf-210" value="" style="group" vertex="1" connectable="0" parent="1">
          <mxGeometry x="75" y="1809" width="110" height="30" as="geometry" />
        </mxCell>
        <mxCell id="LNpFDwtTGK5kS-6dNJRf-211" value="1" style="rounded=0;whiteSpace=wrap;html=1;fillColor=#dae8fc;strokeColor=#6c8ebf;" vertex="1" parent="LNpFDwtTGK5kS-6dNJRf-210">
          <mxGeometry x="40" width="70" height="30" as="geometry" />
        </mxCell>
        <mxCell id="LNpFDwtTGK5kS-6dNJRf-212" value="i" style="text;html=1;strokeColor=none;fillColor=none;align=right;verticalAlign=middle;whiteSpace=wrap;rounded=0;" vertex="1" parent="LNpFDwtTGK5kS-6dNJRf-210">
          <mxGeometry x="-20" y="5" width="60" height="20" as="geometry" />
        </mxCell>
        <mxCell id="LNpFDwtTGK5kS-6dNJRf-213" value="" style="curved=1;endArrow=classic;html=1;rounded=0;exitX=1;exitY=0.5;exitDx=0;exitDy=0;entryX=1;entryY=0.5;entryDx=0;entryDy=0;dashed=1;" edge="1" parent="1" source="LNpFDwtTGK5kS-6dNJRf-86" target="LNpFDwtTGK5kS-6dNJRf-87">
          <mxGeometry width="50" height="50" relative="1" as="geometry">
            <mxPoint x="600" y="610" as="sourcePoint" />
            <mxPoint x="650" y="560" as="targetPoint" />
            <Array as="points">
              <mxPoint x="640" y="590" />
            </Array>
          </mxGeometry>
        </mxCell>
        <mxCell id="LNpFDwtTGK5kS-6dNJRf-214" value="" style="curved=1;endArrow=classic;html=1;rounded=0;exitX=1;exitY=0.5;exitDx=0;exitDy=0;entryX=1;entryY=0.5;entryDx=0;entryDy=0;dashed=1;" edge="1" parent="1">
          <mxGeometry width="50" height="50" relative="1" as="geometry">
            <mxPoint x="550" y="904" as="sourcePoint" />
            <mxPoint x="550" y="934" as="targetPoint" />
            <Array as="points">
              <mxPoint x="640" y="919" />
            </Array>
          </mxGeometry>
        </mxCell>
        <mxCell id="LNpFDwtTGK5kS-6dNJRf-216" value="" style="curved=1;endArrow=classic;html=1;rounded=0;exitX=1;exitY=0.5;exitDx=0;exitDy=0;entryX=1;entryY=0.5;entryDx=0;entryDy=0;dashed=1;" edge="1" parent="1">
          <mxGeometry width="50" height="50" relative="1" as="geometry">
            <mxPoint x="550" y="1237" as="sourcePoint" />
            <mxPoint x="550" y="1267" as="targetPoint" />
            <Array as="points">
              <mxPoint x="640" y="1252" />
            </Array>
          </mxGeometry>
        </mxCell>
        <mxCell id="LNpFDwtTGK5kS-6dNJRf-217" value="" style="curved=1;endArrow=classic;html=1;rounded=0;exitX=1;exitY=0.5;exitDx=0;exitDy=0;dashed=1;" edge="1" parent="1" source="LNpFDwtTGK5kS-6dNJRf-200">
          <mxGeometry width="50" height="50" relative="1" as="geometry">
            <mxPoint x="185" y="1760" as="sourcePoint" />
            <mxPoint x="493" y="1641" as="targetPoint" />
            <Array as="points">
              <mxPoint x="275" y="1775" />
            </Array>
          </mxGeometry>
        </mxCell>
        <mxCell id="LNpFDwtTGK5kS-6dNJRf-218" value="Heap" style="rounded=0;whiteSpace=wrap;html=1;dashed=1;verticalAlign=top;fontStyle=1;fillColor=#d5e8d4;strokeColor=#82b366;fontColor=#000000;" vertex="1" parent="1">
          <mxGeometry x="380" y="1910" width="370" height="320" as="geometry" />
        </mxCell>
        <mxCell id="LNpFDwtTGK5kS-6dNJRf-219" value="Stack" style="rounded=0;whiteSpace=wrap;html=1;dashed=1;verticalAlign=top;fontStyle=1;fillColor=#fff2cc;strokeColor=#d6b656;fontColor=#000000;" vertex="1" parent="1">
          <mxGeometry x="40" y="1910" width="280" height="340" as="geometry" />
        </mxCell>
        <mxCell id="LNpFDwtTGK5kS-6dNJRf-220" value="10" style="rounded=0;whiteSpace=wrap;html=1;" vertex="1" parent="1">
          <mxGeometry x="480" y="1980" width="70" height="30" as="geometry" />
        </mxCell>
        <mxCell id="LNpFDwtTGK5kS-6dNJRf-221" value="0x6FF0" style="text;html=1;align=center;verticalAlign=middle;whiteSpace=wrap;rounded=0;fontColor=#000000;" vertex="1" parent="1">
          <mxGeometry x="485" y="1960" width="60" height="20" as="geometry" />
        </mxCell>
        <mxCell id="LNpFDwtTGK5kS-6dNJRf-222" value="15" style="rounded=0;whiteSpace=wrap;html=1;" vertex="1" parent="1">
          <mxGeometry x="480" y="2010" width="70" height="30" as="geometry" />
        </mxCell>
        <mxCell id="LNpFDwtTGK5kS-6dNJRf-223" value="20" style="rounded=0;whiteSpace=wrap;html=1;" vertex="1" parent="1">
          <mxGeometry x="480" y="2040" width="70" height="30" as="geometry" />
        </mxCell>
        <mxCell id="LNpFDwtTGK5kS-6dNJRf-224" value="0" style="text;html=1;align=right;verticalAlign=middle;whiteSpace=wrap;rounded=0;fontColor=#000000;" vertex="1" parent="1">
          <mxGeometry x="440" y="1980" width="40" height="30" as="geometry" />
        </mxCell>
        <mxCell id="LNpFDwtTGK5kS-6dNJRf-225" value="1" style="text;html=1;align=right;verticalAlign=middle;whiteSpace=wrap;rounded=0;fontColor=#000000;" vertex="1" parent="1">
          <mxGeometry x="440" y="2010" width="40" height="30" as="geometry" />
        </mxCell>
        <mxCell id="LNpFDwtTGK5kS-6dNJRf-226" value="2" style="text;html=1;align=right;verticalAlign=middle;whiteSpace=wrap;rounded=0;fontColor=#000000;" vertex="1" parent="1">
          <mxGeometry x="440" y="2040" width="40" height="30" as="geometry" />
        </mxCell>
        <mxCell id="LNpFDwtTGK5kS-6dNJRf-227" value="" style="group" vertex="1" connectable="0" parent="1">
          <mxGeometry x="55" y="1940" width="250" height="40" as="geometry" />
        </mxCell>
        <mxCell id="LNpFDwtTGK5kS-6dNJRf-228" value="..." style="rounded=0;whiteSpace=wrap;html=1;" vertex="1" parent="LNpFDwtTGK5kS-6dNJRf-227">
          <mxGeometry width="250" height="40" as="geometry" />
        </mxCell>
        <mxCell id="LNpFDwtTGK5kS-6dNJRf-229" value="&lt;i&gt;main stack frame&lt;/i&gt;" style="text;html=1;strokeColor=none;fillColor=none;align=left;verticalAlign=middle;whiteSpace=wrap;rounded=0;" vertex="1" parent="LNpFDwtTGK5kS-6dNJRf-227">
          <mxGeometry width="190" height="20" as="geometry" />
        </mxCell>
        <mxCell id="LNpFDwtTGK5kS-6dNJRf-230" value="" style="rounded=0;whiteSpace=wrap;html=1;" vertex="1" parent="1">
          <mxGeometry x="55" y="1980" width="250" height="260" as="geometry" />
        </mxCell>
        <mxCell id="LNpFDwtTGK5kS-6dNJRf-231" value="&lt;i&gt;insertAt stack frame&lt;/i&gt;" style="text;html=1;strokeColor=none;fillColor=none;align=left;verticalAlign=middle;whiteSpace=wrap;rounded=0;" vertex="1" parent="1">
          <mxGeometry x="55" y="1980" width="190" height="20" as="geometry" />
        </mxCell>
        <mxCell id="LNpFDwtTGK5kS-6dNJRf-232" value="this" style="text;html=1;strokeColor=none;fillColor=none;align=center;verticalAlign=middle;whiteSpace=wrap;rounded=0;" vertex="1" parent="1">
          <mxGeometry x="65" y="2020" width="60" height="20" as="geometry" />
        </mxCell>
        <mxCell id="LNpFDwtTGK5kS-6dNJRf-233" value="" style="rounded=0;whiteSpace=wrap;html=1;" vertex="1" parent="1">
          <mxGeometry x="115" y="2020" width="150" height="110" as="geometry" />
        </mxCell>
        <mxCell id="LNpFDwtTGK5kS-6dNJRf-234" value="" style="group" vertex="1" connectable="0" parent="1">
          <mxGeometry x="145" y="2060" width="110" height="30" as="geometry" />
        </mxCell>
        <mxCell id="LNpFDwtTGK5kS-6dNJRf-235" value="5" style="rounded=0;whiteSpace=wrap;html=1;" vertex="1" parent="LNpFDwtTGK5kS-6dNJRf-234">
          <mxGeometry x="40" width="70" height="30" as="geometry" />
        </mxCell>
        <mxCell id="LNpFDwtTGK5kS-6dNJRf-236" value="m_capacity" style="text;html=1;strokeColor=none;fillColor=none;align=right;verticalAlign=middle;whiteSpace=wrap;rounded=0;" vertex="1" parent="LNpFDwtTGK5kS-6dNJRf-234">
          <mxGeometry x="-20" y="5" width="60" height="20" as="geometry" />
        </mxCell>
        <mxCell id="LNpFDwtTGK5kS-6dNJRf-237" value="" style="group" vertex="1" connectable="0" parent="1">
          <mxGeometry x="145" y="2090" width="110" height="30" as="geometry" />
        </mxCell>
        <mxCell id="LNpFDwtTGK5kS-6dNJRf-238" value="0x6FF0" style="rounded=0;whiteSpace=wrap;html=1;" vertex="1" parent="LNpFDwtTGK5kS-6dNJRf-237">
          <mxGeometry x="40" width="70" height="30" as="geometry" />
        </mxCell>
        <mxCell id="LNpFDwtTGK5kS-6dNJRf-239" value="m_arr" style="text;html=1;strokeColor=none;fillColor=none;align=center;verticalAlign=middle;whiteSpace=wrap;rounded=0;" vertex="1" parent="LNpFDwtTGK5kS-6dNJRf-237">
          <mxGeometry x="-20" y="5" width="60" height="20" as="geometry" />
        </mxCell>
        <mxCell id="LNpFDwtTGK5kS-6dNJRf-240" value="" style="group" vertex="1" connectable="0" parent="1">
          <mxGeometry x="145" y="2030" width="110" height="30" as="geometry" />
        </mxCell>
        <mxCell id="LNpFDwtTGK5kS-6dNJRf-241" value="5" style="rounded=0;whiteSpace=wrap;html=1;fillColor=#dae8fc;strokeColor=#6c8ebf;" vertex="1" parent="LNpFDwtTGK5kS-6dNJRf-240">
          <mxGeometry x="40" width="70" height="30" as="geometry" />
        </mxCell>
        <mxCell id="LNpFDwtTGK5kS-6dNJRf-242" value="m_size" style="text;html=1;strokeColor=none;fillColor=none;align=right;verticalAlign=middle;whiteSpace=wrap;rounded=0;" vertex="1" parent="LNpFDwtTGK5kS-6dNJRf-240">
          <mxGeometry x="-20" y="5" width="60" height="20" as="geometry" />
        </mxCell>
        <mxCell id="LNpFDwtTGK5kS-6dNJRf-243" value="" style="group" vertex="1" connectable="0" parent="1">
          <mxGeometry x="75" y="2139" width="110" height="30" as="geometry" />
        </mxCell>
        <mxCell id="LNpFDwtTGK5kS-6dNJRf-244" value="15" style="rounded=0;whiteSpace=wrap;html=1;" vertex="1" parent="LNpFDwtTGK5kS-6dNJRf-243">
          <mxGeometry x="40" width="70" height="30" as="geometry" />
        </mxCell>
        <mxCell id="LNpFDwtTGK5kS-6dNJRf-245" value="insertItem" style="text;html=1;strokeColor=none;fillColor=none;align=right;verticalAlign=middle;whiteSpace=wrap;rounded=0;" vertex="1" parent="LNpFDwtTGK5kS-6dNJRf-243">
          <mxGeometry x="-20" y="5" width="60" height="20" as="geometry" />
        </mxCell>
        <mxCell id="LNpFDwtTGK5kS-6dNJRf-246" value="" style="curved=1;endArrow=classic;html=1;rounded=0;exitX=1;exitY=0.5;exitDx=0;exitDy=0;entryX=0;entryY=0;entryDx=0;entryDy=0;" edge="1" parent="1" source="LNpFDwtTGK5kS-6dNJRf-238">
          <mxGeometry width="50" height="50" relative="1" as="geometry">
            <mxPoint x="260" y="2025" as="sourcePoint" />
            <mxPoint x="480" y="1980" as="targetPoint" />
            <Array as="points">
              <mxPoint x="350" y="2030" />
              <mxPoint x="420" y="1990" />
            </Array>
          </mxGeometry>
        </mxCell>
        <mxCell id="LNpFDwtTGK5kS-6dNJRf-247" value="30" style="rounded=0;whiteSpace=wrap;html=1;" vertex="1" parent="1">
          <mxGeometry x="480" y="2070" width="70" height="30" as="geometry" />
        </mxCell>
        <mxCell id="LNpFDwtTGK5kS-6dNJRf-248" value="40" style="rounded=0;whiteSpace=wrap;html=1;" vertex="1" parent="1">
          <mxGeometry x="480" y="2100" width="70" height="30" as="geometry" />
        </mxCell>
        <mxCell id="LNpFDwtTGK5kS-6dNJRf-249" value="" style="group" vertex="1" connectable="0" parent="1">
          <mxGeometry x="75" y="2169" width="110" height="30" as="geometry" />
        </mxCell>
        <mxCell id="LNpFDwtTGK5kS-6dNJRf-250" value="1" style="rounded=0;whiteSpace=wrap;html=1;" vertex="1" parent="LNpFDwtTGK5kS-6dNJRf-249">
          <mxGeometry x="40" width="70" height="30" as="geometry" />
        </mxCell>
        <mxCell id="LNpFDwtTGK5kS-6dNJRf-251" value="location" style="text;html=1;strokeColor=none;fillColor=none;align=right;verticalAlign=middle;whiteSpace=wrap;rounded=0;" vertex="1" parent="LNpFDwtTGK5kS-6dNJRf-249">
          <mxGeometry x="-20" y="5" width="60" height="20" as="geometry" />
        </mxCell>
        <mxCell id="LNpFDwtTGK5kS-6dNJRf-252" value="3" style="text;html=1;align=right;verticalAlign=middle;whiteSpace=wrap;rounded=0;fontColor=#000000;" vertex="1" parent="1">
          <mxGeometry x="440" y="2070" width="40" height="30" as="geometry" />
        </mxCell>
        <mxCell id="LNpFDwtTGK5kS-6dNJRf-253" value="4" style="text;html=1;align=right;verticalAlign=middle;whiteSpace=wrap;rounded=0;fontColor=#000000;" vertex="1" parent="1">
          <mxGeometry x="440" y="2100" width="40" height="30" as="geometry" />
        </mxCell>
      </root>
    </mxGraphModel>
  </diagram>
</mxfile>
